<?xml version="1.0" encoding="UTF-8" standalone="no"?>
<svg
   xmlns:dc="http://purl.org/dc/elements/1.1/"
   xmlns:cc="http://creativecommons.org/ns#"
   xmlns:rdf="http://www.w3.org/1999/02/22-rdf-syntax-ns#"
   xmlns:svg="http://www.w3.org/2000/svg"
   xmlns="http://www.w3.org/2000/svg"
   xmlns:sodipodi="http://sodipodi.sourceforge.net/DTD/sodipodi-0.dtd"
   xmlns:inkscape="http://www.inkscape.org/namespaces/inkscape"
   id="Layer_1"
   data-name="Layer 1"
   viewBox="0 0 64 64"
   version="1.1"
   sodipodi:docname="pardus-pm-mode5.svg"
   inkscape:version="1.0.2 (e86c870879, 2021-01-15)">
  <metadata
     id="metadata19">
    <rdf:RDF>
      <cc:Work
         rdf:about="">
        <dc:format>image/svg+xml</dc:format>
        <dc:type
           rdf:resource="http://purl.org/dc/dcmitype/StillImage" />
      </cc:Work>
    </rdf:RDF>
  </metadata>
  <sodipodi:namedview
     pagecolor="#ffffff"
     bordercolor="#666666"
     borderopacity="1"
     objecttolerance="10"
     gridtolerance="10"
     guidetolerance="10"
     inkscape:pageopacity="0"
     inkscape:pageshadow="2"
     inkscape:window-width="1920"
     inkscape:window-height="1142"
     id="namedview17"
     showgrid="false"
     inkscape:zoom="11.484375"
     inkscape:cx="32"
     inkscape:cy="32"
     inkscape:window-x="0"
     inkscape:window-y="0"
     inkscape:window-maximized="1"
     inkscape:current-layer="Layer_1"
     inkscape:document-rotation="0" />
  <defs
     id="defs4">
    <style
       id="style2">.cls-1{opacity:0.5;}.cls-2{fill:#b5b5b5;}</style>
  </defs>
  <rect
     style="fill:#ffffff;stroke-width:11.4243;stroke-linecap:round"
     id="rect835"
     width="53.248051"
     height="54.229862"
     x="5.3759747"
     y="4.8850689"
     ry="7.403625" />
  <g
     class="cls-1"
     id="g8"
     style="fill:#ff0000">
    <path
       class="cls-2"
       d="M12.7,48.9v-34a2.7,2.7,0,0,1,2.7-2.7H48.6a2.8,2.8,0,0,1,2.8,2.7v34a3.1,3.1,0,0,1-3,3H15.6A3,3,0,0,1,12.7,48.9Z"
       id="path6"
       style="fill:#ff0000" />
  </g>
  <path
     d="M56.7,27.3a2,2,0,0,1-2-2V12.5A3.8,3.8,0,0,0,51,8.8H25.3a2,2,0,0,1-2-2,2,2,0,0,1,2-1.9H51a7.6,7.6,0,0,1,7.6,7.6V25.3A2,2,0,0,1,56.7,27.3Z"
     id="path10" />
  <path
     d="M51,59.1H13a7.6,7.6,0,0,1-7.6-7.6v-39A7.6,7.6,0,0,1,13,4.9H25.3a2,2,0,0,1,1.9,1.9,2,2,0,0,1-1.9,2H13a3.8,3.8,0,0,0-3.7,3.7v39A3.8,3.8,0,0,0,13,55.2H51a3.8,3.8,0,0,0,3.7-3.7V38.3a2,2,0,1,1,3.9,0V51.5A7.6,7.6,0,0,1,51,59.1Z"
     id="path12" />
  <path
     d="M42.7,31.4,28,26.8a5.1,5.1,0,0,0-6.7,4.9v.6h0a5.1,5.1,0,0,0,7,4.8Z"
     id="path14" />
</svg>
