<?xml version="1.0" encoding="UTF-8" standalone="no"?>
<svg
   xmlns:dc="http://purl.org/dc/elements/1.1/"
   xmlns:cc="http://creativecommons.org/ns#"
   xmlns:rdf="http://www.w3.org/1999/02/22-rdf-syntax-ns#"
   xmlns:svg="http://www.w3.org/2000/svg"
   xmlns="http://www.w3.org/2000/svg"
   xmlns:sodipodi="http://sodipodi.sourceforge.net/DTD/sodipodi-0.dtd"
   xmlns:inkscape="http://www.inkscape.org/namespaces/inkscape"
   id="Layer_1"
   data-name="Layer 1"
   viewBox="0 0 64 64"
   version="1.1"
   sodipodi:docname="pardus-pm-mode2.svg"
   inkscape:version="1.0.2 (e86c870879, 2021-01-15)">
  <metadata
     id="metadata19">
    <rdf:RDF>
      <cc:Work
         rdf:about="">
        <dc:format>image/svg+xml</dc:format>
        <dc:type
           rdf:resource="http://purl.org/dc/dcmitype/StillImage" />
      </cc:Work>
    </rdf:RDF>
  </metadata>
  <sodipodi:namedview
     pagecolor="#ffffff"
     bordercolor="#666666"
     borderopacity="1"
     objecttolerance="10"
     gridtolerance="10"
     guidetolerance="10"
     inkscape:pageopacity="0"
     inkscape:pageshadow="2"
     inkscape:window-width="1188"
     inkscape:window-height="878"
     id="namedview17"
     showgrid="false"
     inkscape:zoom="11.484375"
     inkscape:cx="32"
     inkscape:cy="32"
     inkscape:window-x="84"
     inkscape:window-y="81"
     inkscape:window-maximized="0"
     inkscape:current-layer="Layer_1" />
  <defs
     id="defs4">
    <style
       id="style2">.cls-1{opacity:0.5;}.cls-2{fill:#b5b5b5;}</style>
  </defs>
  <g
     class="cls-1"
     id="g8"
     style="fill:#6c8000;fill-opacity:1">
    <path
       class="cls-2"
       d="M51.3,48.9v-34a2.7,2.7,0,0,0-2.7-2.7H15.4a2.8,2.8,0,0,0-2.8,2.7v34a3.1,3.1,0,0,0,3,3H48.4A3,3,0,0,0,51.3,48.9Z"
       id="path6"
       style="fill:#6c8000;fill-opacity:1" />
  </g>
  <path
     d="M38.7,8.8H16.1a2,2,0,0,1-2-2,2,2,0,0,1,2-1.9H38.7a2,2,0,0,1,2,1.9A2,2,0,0,1,38.7,8.8Z"
     id="path10" />
  <path
     d="M51,59.1H13a7.6,7.6,0,0,1-7.6-7.6V15a2,2,0,0,1,1.9-2,2,2,0,0,1,2,2V51.5A3.8,3.8,0,0,0,13,55.2H51a3.8,3.8,0,0,0,3.7-3.7v-39A3.8,3.8,0,0,0,51,8.8H38.7a2,2,0,0,1-1.9-2,2,2,0,0,1,1.9-1.9H51a7.6,7.6,0,0,1,7.6,7.6v39A7.6,7.6,0,0,1,51,59.1Z"
     id="path12" />
  <path
     d="M23.8,23.3l13.7,7.2a5.1,5.1,0,0,1,1.2,8.2l-.4.5h0a5.2,5.2,0,0,1-8.4-1.6Z"
     id="path14" />
</svg>
