<svg id="Layer_1" data-name="Layer 1" xmlns="http://www.w3.org/2000/svg" viewBox="0 0 64 64"><defs><style>.cls-1{opacity:0.5;}.cls-2{fill:#b5b5b5;}</style></defs><g class="cls-1"><path class="cls-2" d="M51.3,48.9v-34a2.7,2.7,0,0,0-2.7-2.7H15.4a2.8,2.8,0,0,0-2.8,2.7v34a3.1,3.1,0,0,0,3,3H48.4A3,3,0,0,0,51.3,48.9Z"/></g><path d="M51,59.1H13a7.6,7.6,0,0,1-7.6-7.6v-39A7.6,7.6,0,0,1,13,4.9H25.8a2,2,0,0,1,2,1.9,2,2,0,0,1-2,2H13a3.8,3.8,0,0,0-3.7,3.7v39A3.8,3.8,0,0,0,13,55.2H51a3.8,3.8,0,0,0,3.7-3.7v-39A3.8,3.8,0,0,0,51,8.8H38.7a2,2,0,0,1-1.9-2,2,2,0,0,1,1.9-1.9H51a7.6,7.6,0,0,1,7.6,7.6v39A7.6,7.6,0,0,1,51,59.1Z"/><path d="M32.9,21.3,37.6,36a5.2,5.2,0,0,1-5,6.7H32a5.1,5.1,0,0,1-4.8-7Z"/></svg>