<?xml version="1.0" encoding="UTF-8" standalone="no"?>
<svg
   xmlns:dc="http://purl.org/dc/elements/1.1/"
   xmlns:cc="http://creativecommons.org/ns#"
   xmlns:rdf="http://www.w3.org/1999/02/22-rdf-syntax-ns#"
   xmlns:svg="http://www.w3.org/2000/svg"
   xmlns="http://www.w3.org/2000/svg"
   xmlns:sodipodi="http://sodipodi.sourceforge.net/DTD/sodipodi-0.dtd"
   xmlns:inkscape="http://www.inkscape.org/namespaces/inkscape"
   id="Layer_1"
   data-name="Layer 1"
   viewBox="0 0 64 64"
   version="1.1"
   sodipodi:docname="pardus-pm-mode4.svg"
   inkscape:version="1.0.2 (e86c870879, 2021-01-15)">
  <metadata
     id="metadata19">
    <rdf:RDF>
      <cc:Work
         rdf:about="">
        <dc:format>image/svg+xml</dc:format>
        <dc:type
           rdf:resource="http://purl.org/dc/dcmitype/StillImage" />
      </cc:Work>
    </rdf:RDF>
  </metadata>
  <sodipodi:namedview
     pagecolor="#ffffff"
     bordercolor="#666666"
     borderopacity="1"
     objecttolerance="10"
     gridtolerance="10"
     guidetolerance="10"
     inkscape:pageopacity="0"
     inkscape:pageshadow="2"
     inkscape:window-width="1920"
     inkscape:window-height="1142"
     id="namedview17"
     showgrid="false"
     inkscape:zoom="11.484375"
     inkscape:cx="32"
     inkscape:cy="32"
     inkscape:window-x="0"
     inkscape:window-y="0"
     inkscape:window-maximized="1"
     inkscape:current-layer="Layer_1" />
  <defs
     id="defs4">
    <style
       id="style2">.cls-1{opacity:0.5;}.cls-2{fill:#b5b5b5;}</style>
  </defs>
  <path
     d="M57.2,40.7a2,2,0,0,1-2-2V16.1a2,2,0,1,1,3.9,0V38.7A2,2,0,0,1,57.2,40.7Z"
     id="path6" />
  <path
     d="M51.5,58.6h-39A7.6,7.6,0,0,1,4.9,51V13a7.6,7.6,0,0,1,7.6-7.6H49a2,2,0,0,1,2,1.9,2,2,0,0,1-2,2H12.5A3.8,3.8,0,0,0,8.8,13V51a3.8,3.8,0,0,0,3.7,3.7h39A3.8,3.8,0,0,0,55.2,51V38.7a2,2,0,0,1,2-1.9,2,2,0,0,1,1.9,1.9V51A7.6,7.6,0,0,1,51.5,58.6Z"
     id="path8" />
  <g
     class="cls-1"
     id="g12"
     style="fill:#ff7900;fill-opacity:1">
    <path
       class="cls-2"
       d="M12.6,48.9v-34a2.9,2.9,0,0,1,2.8-2.8H48.6a2.8,2.8,0,0,1,2.7,2.8v34a3,3,0,0,1-2.9,3H15.6A3.1,3.1,0,0,1,12.6,48.9Z"
       id="path10"
       style="fill:#ff7900;fill-opacity:1" />
  </g>
  <path
     d="M40.2,23.3,26.5,30.5a5.1,5.1,0,0,0-1.2,8.2l.4.5h0a5.1,5.1,0,0,0,8.4-1.7Z"
     id="path14" />
</svg>
