<?xml version="1.0" encoding="UTF-8" standalone="no"?>
<svg
   xmlns:dc="http://purl.org/dc/elements/1.1/"
   xmlns:cc="http://creativecommons.org/ns#"
   xmlns:rdf="http://www.w3.org/1999/02/22-rdf-syntax-ns#"
   xmlns:svg="http://www.w3.org/2000/svg"
   xmlns="http://www.w3.org/2000/svg"
   xmlns:sodipodi="http://sodipodi.sourceforge.net/DTD/sodipodi-0.dtd"
   xmlns:inkscape="http://www.inkscape.org/namespaces/inkscape"
   id="Layer_1"
   data-name="Layer 1"
   viewBox="0 0 64 64"
   version="1.1"
   sodipodi:docname="pardus-pm-mode1.svg"
   inkscape:version="1.0.2 (e86c870879, 2021-01-15)">
  <metadata
     id="metadata19">
    <rdf:RDF>
      <cc:Work
         rdf:about="">
        <dc:format>image/svg+xml</dc:format>
        <dc:type
           rdf:resource="http://purl.org/dc/dcmitype/StillImage" />
      </cc:Work>
    </rdf:RDF>
  </metadata>
  <sodipodi:namedview
     pagecolor="#ffffff"
     bordercolor="#666666"
     borderopacity="1"
     objecttolerance="10"
     gridtolerance="10"
     guidetolerance="10"
     inkscape:pageopacity="0"
     inkscape:pageshadow="2"
     inkscape:window-width="1920"
     inkscape:window-height="1142"
     id="namedview17"
     showgrid="false"
     inkscape:zoom="8.1206794"
     inkscape:cx="16.977855"
     inkscape:cy="22.965072"
     inkscape:window-x="0"
     inkscape:window-y="0"
     inkscape:window-maximized="1"
     inkscape:current-layer="Layer_1" />
  <defs
     id="defs4">
    <style
       id="style2">.cls-1{opacity:0.5;}.cls-2{fill:#b5b5b5;}</style>
  </defs>
  <g
     class="cls-1"
     id="g8"
     style="fill:#008000">
    <path
       class="cls-2"
       d="M51.3,48.9v-34a2.7,2.7,0,0,0-2.7-2.7H15.4a2.8,2.8,0,0,0-2.8,2.7v34a3.1,3.1,0,0,0,3,3H48.4A3,3,0,0,0,51.3,48.9Z"
       id="path6"
       style="fill:#008000" />
  </g>
  <path
     d="M7.3,27.7a2,2,0,0,1-1.9-2V12.5A7.6,7.6,0,0,1,13,4.9H38.7a2,2,0,0,1,2,1.9,2,2,0,0,1-2,2H13a3.8,3.8,0,0,0-3.7,3.7V25.7A2,2,0,0,1,7.3,27.7Z"
     id="path10" />
  <path
     d="M51,59.1H13a7.6,7.6,0,0,1-7.6-7.6v-13a2,2,0,0,1,1.9-2,2,2,0,0,1,2,2v13A3.8,3.8,0,0,0,13,55.2H51a3.8,3.8,0,0,0,3.7-3.7v-39A3.8,3.8,0,0,0,51,8.8H38.7a2,2,0,0,1-1.9-2,2,2,0,0,1,1.9-1.9H51a7.6,7.6,0,0,1,7.6,7.6v39A7.6,7.6,0,0,1,51,59.1Z"
     id="path12" />
  <path
     d="M21.3,31.4,36,26.8a5.1,5.1,0,0,1,6.7,4.9v.6h0a5.1,5.1,0,0,1-7,4.8Z"
     id="path14" />
</svg>
