<?xml version="1.0" encoding="UTF-8" standalone="no"?>
<svg
   xmlns:dc="http://purl.org/dc/elements/1.1/"
   xmlns:cc="http://creativecommons.org/ns#"
   xmlns:rdf="http://www.w3.org/1999/02/22-rdf-syntax-ns#"
   xmlns:svg="http://www.w3.org/2000/svg"
   xmlns="http://www.w3.org/2000/svg"
   xmlns:sodipodi="http://sodipodi.sourceforge.net/DTD/sodipodi-0.dtd"
   xmlns:inkscape="http://www.inkscape.org/namespaces/inkscape"
   version="1.1"
   id="Layer_1"
   x="0px"
   y="0px"
   viewBox="0 0 22 22"
   xml:space="preserve"
   sodipodi:docname="icon.svg"
   inkscape:version="1.0.2 (e86c870879, 2021-01-15)"
   width="22"
   height="22"><metadata
   id="metadata59"><rdf:RDF><cc:Work
       rdf:about=""><dc:format>image/svg+xml</dc:format><dc:type
         rdf:resource="http://purl.org/dc/dcmitype/StillImage" /><dc:title></dc:title></cc:Work></rdf:RDF></metadata><defs
   id="defs57">
	
	<linearGradient
   id="SVGID_3_"
   gradientUnits="userSpaceOnUse"
   x1="18.577801"
   y1="-10.7887"
   x2="16.3613"
   y2="30.881901"
   gradientTransform="matrix(0.92738752,0,0,0.92738752,-4.4952782,-3.4590165)">
		<stop
   offset="0"
   style="stop-color:#2ADE7A"
   id="stop20" />
		<stop
   offset="1"
   style="stop-color:#20B48D"
   id="stop22" />
	</linearGradient>
	
</defs><sodipodi:namedview
   pagecolor="#ffffff"
   bordercolor="#666666"
   borderopacity="1"
   objecttolerance="10"
   gridtolerance="10"
   guidetolerance="10"
   inkscape:pageopacity="0"
   inkscape:pageshadow="2"
   inkscape:window-width="1920"
   inkscape:window-height="1147"
   id="namedview55"
   showgrid="false"
   inkscape:zoom="22.96875"
   inkscape:cx="16"
   inkscape:cy="16"
   inkscape:window-x="0"
   inkscape:window-y="0"
   inkscape:window-maximized="1"
   inkscape:current-layer="Layer_1"
   inkscape:document-rotation="0" />
<style
   type="text/css"
   id="style2">
	.st0{fill:url(#SVGID_1_);}
	.st1{fill:url(#SVGID_2_);}
	.st2{fill:url(#SVGID_3_);}
	.st3{fill:url(#SVGID_4_);}
	.st4{fill:url(#SVGID_5_);}
	.st5{fill:url(#SVGID_6_);}
</style>
<path
   class="st2"
   d="m 16.556417,10.822751 c 0,-4.6369377 -2.874901,-7.3263614 -5.193369,-9.4593527 l -0.09274,-0.092739 C 11.084832,1.085182 10.713877,0.99244324 10.435661,1.1779207 10.157444,1.2706594 9.9719663,1.5488758 9.9719663,1.827092 c 0,2.3184688 -0.9273871,3.8022888 -1.762036,5.2861089 C 7.9317142,7.4841558 7.7462364,7.8551115 7.5607592,8.3188054 7.0970654,9.2461918 6.7261104,10.17358 6.7261104,11.286445 c 0,0.09274 0,0.185477 0,0.278216 0,0 0,0 0,0 0,0.09274 0,0.185477 0,0.278216 0,0 0,0 0,0 0,0.09274 0,0.185477 0,0.278217 0,0 0,0 0,0 0,0.09274 0,0.185477 0,0.278216 0,0 0,0 0,0 0,0.09274 0,0.185477 0,0.278216 0,0 0,0 0,0 0,0.09274 0,0.185477 0,0.185477 0,0 0,0 0,0 0,0.09274 0,0.185478 0.092738,0.185478 0,0 0,0 0,0 0,0.09274 0,0.09274 0.092739,0.185478 0,0 0,0 0,0 0,0.09274 0,0.09274 0.092739,0.185477 0,0 0,0 0,0 0,0.09274 0,0.09274 0.092739,0.185478 0,0 0,0 0,0 0,0.09274 0.092738,0.09274 0.092738,0.185478 0,0 0,0 0,0 0,0.09274 0.092739,0.09274 0.092739,0.185477 0,0 0,0 0,0 0,0.09274 0.092739,0.09274 0.092739,0.185477 0,0 0,0 0,0 0,0.09274 0.092739,0.09274 0.092739,0.185478 0,0 0,0 0,0 0,0.09274 0.092739,0.09274 0.092739,0.185477 0,0 0,0 0,0 0,0.09274 0.092738,0.09274 0.092738,0.185477 0,0 0,0 0,0 0,0 0.092739,0.09274 0.092739,0.09274 0,0 0,0 0,0 0,0 0.092738,0.09274 0.092738,0.09274 0,0 0,0 0,0 0,0 0.09274,0.09274 0.09274,0.09274 0,0 0,0 0,0 0,0 0.092738,0.09274 0.092738,0.09274 0,0 0,0 0,0 0,0 0.092739,0.09274 0.092739,0.09274 0,0 0,0 0,0 0,0 0.092738,0.09274 0.092738,0.09274 0,0 0,0 0,0 0,0 0.092738,0.09274 0.092738,0.09274 0,0 0,0 0,0 0.092739,0 0.092739,0.09274 0.1854779,0.09274 0,0 0,0 0,0 0.092739,0 0.092739,0.09274 0.1854778,0.09274 0,0 0,0 0.092739,0 0.092738,0 0.092738,0.09274 0.1854771,0.09274 0,0 0,0 0.092739,0 0.092738,0 0.092738,0 0.1854771,0.09274 0,0 0,0 0.092739,0 0.092739,0 0.092739,0 0.1854772,0.09274 0,0 0,0 0.09274,0 0,0 0.092738,0 0.092738,0 -0.5564328,1.57656 -1.6692977,3.153118 -3.7095499,3.709551 -0.1854774,0.09274 -0.3709549,0.185477 -0.4636937,0.370955 -0.092739,0.185477 -0.092739,0.370955 0,0.463693 0,0 0,0 0,0 0,0 0,0 0,0 0.092739,0.278217 0.370955,0.556433 0.7419101,0.556433 h 0.1854774 c 2.7821622,-0.74191 4.1732426,-2.782163 4.8224146,-4.915153 3.70955,0.74191 5.286108,-2.31847 5.286108,-5.193371 z"
   id="path25"
   style="fill:url(#SVGID_3_);stroke:#ffffff;stroke-width:0.660863;stroke-miterlimit:4;stroke-dasharray:none;stroke-opacity:1" />
<g
   id="g52">
	<g
   id="g43">
		<linearGradient
   id="SVGID_4_"
   gradientUnits="userSpaceOnUse"
   x1="171.8257"
   y1="345.93631"
   x2="171.8257"
   y2="388.0145">
			<stop
   offset="0"
   style="stop-color:#1379E6"
   id="stop29" />
			<stop
   offset="1"
   style="stop-color:#115CCC"
   id="stop31" />
		</linearGradient>
		<path
   class="st3"
   d="m 156.8,353.9 v 13 13 c 0,4.8 3.9,8.7 8.7,8.7 h 11.7 c 0.3,0 0.6,-0.2 0.7,-0.6 l 0.7,-2.9 c 0.1,-0.5 -0.2,-0.9 -0.7,-0.9 h -12.4 c -2.4,0 -4.3,-1.9 -4.3,-4.3 v -13 -13 c 0,-2.4 1.9,-4.3 4.3,-4.3 H 184 c 0.2,0 0.4,-0.1 0.6,-0.3 l 2.1,-2.9 c 0.3,-0.5 0,-1.1 -0.6,-1.1 h -20.7 c -4.7,-0.1 -8.6,3.8 -8.6,8.6 z"
   id="path34" />
		<linearGradient
   id="SVGID_5_"
   gradientUnits="userSpaceOnUse"
   x1="212.35629"
   y1="345.93631"
   x2="212.35629"
   y2="388.0145">
			<stop
   offset="0"
   style="stop-color:#1379E6"
   id="stop36" />
			<stop
   offset="1"
   style="stop-color:#115CCC"
   id="stop38" />
		</linearGradient>
		<path
   class="st4"
   d="m 221.1,353.9 h -0.7 v 0 c 0,-4.8 -3.9,-8.7 -8.7,-8.7 h -5.9 c 0,0.4 -0.1,0.7 -0.1,1.1 l -0.5,2.4 c -0.1,0.5 0.2,0.9 0.7,0.9 h 5.9 c 2.4,0 4.3,1.9 4.3,4.3 v 1.4 c 0,1.6 1.3,2.9 2.9,2.9 h 1.4 c 0.8,0 1.4,0.6 1.4,1.4 v 7.2 7.2 c 0,0.8 -0.6,1.4 -1.4,1.4 H 219 c -1.6,0 -2.9,1.3 -2.9,2.9 v 1.4 c 0,2.4 -1.9,4.3 -4.3,4.3 h -10.2 c -0.2,0 -0.4,0.1 -0.6,0.3 l -2.2,2.9 c -0.4,0.5 0,1.2 0.6,1.2 h 12.4 c 4.8,0 8.7,-3.9 8.7,-8.7 v 0 h 0.7 c 2.8,0 5.1,-2.3 5.1,-5.1 v -7.9 -7.7 c -0.2,-2.8 -2.4,-5.1 -5.2,-5.1 z"
   id="path41" />
	</g>
	<linearGradient
   id="SVGID_6_"
   gradientUnits="userSpaceOnUse"
   x1="197.2749"
   y1="307.009"
   x2="192.28281"
   y2="400.85989">
		<stop
   offset="0"
   style="stop-color:#2ADE7A"
   id="stop45" />
		<stop
   offset="1"
   style="stop-color:#20B48D"
   id="stop47" />
	</linearGradient>
	<path
   class="st5"
   d="m 206.6,366 c 0,-11.3 -7,-17.8 -12.6,-23 l -0.3,-0.3 c -0.5,-0.5 -1.3,-0.6 -1.9,-0.3 -0.7,0.3 -1.1,0.9 -1.1,1.6 0,5.7 -2.2,9.3 -4.3,12.9 -0.6,1 -1.1,1.9 -1.6,2.9 -1.2,2.2 -2,4.5 -2,7.2 0,0.2 0,0.4 0,0.7 0,0 0,0 0,0.1 0,0.2 0,0.4 0,0.6 0,0 0,0.1 0,0.1 0,0.2 0,0.4 0,0.6 0,0 0,0.1 0,0.1 0,0.2 0,0.4 0.1,0.6 0,0 0,0.1 0,0.1 0,0.2 0.1,0.4 0.1,0.6 0,0 0,0 0,0.1 0,0.2 0.1,0.4 0.1,0.5 0,0 0,0 0,0 0,0.2 0.1,0.4 0.1,0.5 0,0 0,0.1 0,0.1 0,0.2 0.1,0.3 0.1,0.5 0,0 0,0.1 0,0.1 0,0.2 0.1,0.3 0.1,0.5 0,0 0,0.1 0,0.1 0.1,0.2 0.1,0.3 0.2,0.5 0,0 0,0.1 0,0.1 0.1,0.2 0.1,0.3 0.2,0.5 0,0 0,0 0,0.1 0.1,0.1 0.1,0.3 0.2,0.4 0,0 0,0.1 0,0.1 0.1,0.1 0.1,0.3 0.2,0.4 0,0 0,0.1 0.1,0.1 0.1,0.1 0.1,0.3 0.2,0.4 0,0 0,0.1 0.1,0.1 0.1,0.1 0.1,0.2 0.2,0.4 0,0 0,0.1 0.1,0.1 0.1,0.1 0.2,0.2 0.2,0.4 0,0 0,0.1 0.1,0.1 0.1,0.1 0.2,0.2 0.2,0.3 0,0 0,0.1 0.1,0.1 0.1,0.1 0.2,0.2 0.3,0.3 0,0 0,0.1 0.1,0.1 0.1,0.1 0.2,0.2 0.3,0.3 0,0 0.1,0.1 0.1,0.1 0.1,0.1 0.2,0.2 0.3,0.3 0,0 0.1,0.1 0.1,0.1 0.1,0.1 0.2,0.2 0.3,0.3 0,0 0.1,0 0.1,0.1 0.1,0.1 0.2,0.2 0.3,0.3 0,0 0.1,0 0.1,0.1 0.1,0.1 0.2,0.1 0.3,0.2 0,0 0.1,0 0.1,0.1 0.1,0.1 0.2,0.1 0.3,0.2 0,0 0.1,0 0.1,0.1 0.1,0.1 0.2,0.1 0.4,0.2 0,0 0.1,0 0.1,0.1 0.1,0.1 0.2,0.1 0.4,0.2 0,0 0.1,0 0.1,0.1 0.1,0.1 0.3,0.1 0.4,0.2 0,0 0.1,0 0.1,0 0.1,0 0.2,0.1 0.4,0.1 0,0 0.1,0 0.1,0 0.1,0 0.2,0.1 0.3,0.1 -1.5,3.9 -4.1,7.6 -9,8.9 -0.5,0.1 -1,0.5 -1.2,1 -0.2,0.4 -0.2,0.8 -0.1,1.2 0,0 0,0.1 0,0.1 0,0 0,0 0,0 0.2,0.8 0.9,1.3 1.7,1.3 l 0.5,-0.1 c 6.7,-1.8 10,-6.8 11.7,-11.9 8.6,-0.6 12.4,-8.2 12.4,-15.1 z"
   id="path50" />
</g>
</svg>
