<?xml version="1.0" encoding="utf-8"?>
<!-- Generator: Adobe Illustrator 25.4.1, SVG Export Plug-In . SVG Version: 6.00 Build 0)  -->
<svg version="1.1" id="Layer_1" xmlns="http://www.w3.org/2000/svg" xmlns:xlink="http://www.w3.org/1999/xlink" x="0px" y="0px"
	 viewBox="0 0 64 64" style="enable-background:new 0 0 64 64;" xml:space="preserve">
<style type="text/css">
	.st0{fill:#929495;}
	.st1{fill:#2E3436;}
</style>
<g>
	<path class="st0" d="M12.7,48.9v-34c0-1.5,1.2-2.7,2.7-2.7h33.2c1.5,0,2.7,1.2,2.8,2.7v34c-0.1,1.6-1.4,2.9-3,3H15.6
		C14,51.8,12.7,50.5,12.7,48.9z"/>
</g>
<path class="st1" d="M58.6,37.4c-0.2-1.1-1.3-1.8-2.4-1.5c-1.1,0.2-1.8,1.3-1.5,2.4v13.2c-0.1,2-1.7,3.6-3.7,3.7H13
	c-2-0.1-3.6-1.7-3.7-3.7v-39c0.1-2,1.7-3.6,3.7-3.7h12.3H51c2,0.1,3.6,1.7,3.7,3.7v12.8c0,1.1,0.9,2,2,2c1.1-0.1,1.9-0.9,1.9-2V12.5
	c0-4.2-3.4-7.6-7.6-7.6H25.3H13c-4.2,0-7.6,3.4-7.6,7.6v39c0,4.2,3.4,7.6,7.6,7.6h38c4.2,0,7.6-3.4,7.6-7.6V38.3
	C58.7,38,58.7,37.7,58.6,37.4z"/>
<path class="st1" d="M42.7,31.4L28,26.8c-2.7-0.9-5.6,0.6-6.4,3.2c-0.2,0.5-0.3,1.1-0.3,1.7v0.6l0,0c0,2.8,2.2,5.1,5,5.2
	c0.7,0,1.3-0.1,2-0.4L42.7,31.4z"/>
</svg>
