<svg id="Layer_1" data-name="Layer 1" xmlns="http://www.w3.org/2000/svg" xmlns:xlink="http://www.w3.org/1999/xlink" viewBox="0 0 64 64"><defs><style>.cls-1{fill:none;}.cls-2{clip-path:url(#clip-path);}.cls-3{fill:#333335;}.cls-4{fill:#343235;}.cls-5{fill:#353235;}.cls-6{fill:#363234;}.cls-7{fill:#373234;}.cls-8{fill:#383134;}.cls-9{fill:#393134;}.cls-10{fill:#3a3134;}.cls-11{fill:#3b3133;}.cls-12{fill:#3c3033;}.cls-13{fill:#3d3033;}.cls-14{fill:#3e3033;}.cls-15{fill:#3f3033;}.cls-16{fill:#402f33;}.cls-17{fill:#412f32;}.cls-18{fill:#422f32;}.cls-19{fill:#432f32;}.cls-20{fill:#442e32;}.cls-21{fill:#452e32;}.cls-22{fill:#462e31;}.cls-23{fill:#472e31;}.cls-24{fill:#482d31;}.cls-25{fill:#492d31;}.cls-26{fill:#4a2d31;}.cls-27{fill:#4b2d30;}.cls-28{fill:#4c2c30;}.cls-29{fill:#4d2c30;}.cls-30{fill:#4e2c30;}.cls-31{fill:#4f2c30;}.cls-32{fill:#502b2f;}.cls-33{fill:#512b2f;}.cls-34{fill:#522b2f;}.cls-35{fill:#532b2f;}.cls-36{fill:#542a2f;}.cls-37{fill:#552a2e;}.cls-38{fill:#562a2e;}.cls-39{fill:#572a2e;}.cls-40{fill:#58292e;}.cls-41{fill:#59292e;}.cls-42{fill:#5a292d;}.cls-43{fill:#5b292d;}.cls-44{fill:#5c282d;}.cls-45{fill:#5d282d;}.cls-46{fill:#5e282d;}.cls-47{fill:#5f272c;}.cls-48{fill:#60272c;}.cls-49{fill:#61272c;}.cls-50{fill:#62272c;}.cls-51{fill:#63262c;}.cls-52{fill:#64262c;}.cls-53{fill:#65262b;}.cls-54{fill:#66262b;}.cls-55{fill:#67252b;}.cls-56{fill:#68252b;}.cls-57{fill:#69252b;}.cls-58{fill:#6a252a;}.cls-59{fill:#6b242a;}.cls-60{fill:#6c242a;}.cls-61{fill:#6d242a;}.cls-62{fill:#6e242a;}.cls-63{fill:#6f2329;}.cls-64{fill:#702329;}.cls-65{fill:#712329;}.cls-66{fill:#722329;}.cls-67{fill:#732229;}.cls-68{fill:#742228;}.cls-69{fill:#752228;}.cls-70{fill:#762228;}.cls-71{fill:#772128;}.cls-72{fill:#782128;}.cls-73{fill:#792127;}.cls-74{fill:#7a2127;}.cls-75{fill:#7b2027;}.cls-76{fill:#7c2027;}.cls-77{fill:#7d2027;}.cls-78{fill:#7e2026;}.cls-79{fill:#7f1f26;}.cls-80{fill:#801f26;}.cls-81{fill:#811f26;}.cls-82{fill:#821f26;}.cls-83{fill:#831e25;}.cls-84{fill:#841e25;}.cls-85{fill:#851e25;}.cls-86{fill:#861e25;}.cls-87{fill:#871d25;}.cls-88{fill:#891d25;}.cls-89{fill:#8a1d24;}.cls-90{fill:#8b1c24;}.cls-91{fill:#8c1c24;}.cls-92{fill:#8d1c24;}.cls-93{fill:#8e1c24;}.cls-94{fill:#8f1b23;}.cls-95{fill:#901b23;}.cls-96{fill:#911b23;}.cls-97{fill:#921b23;}.cls-98{fill:#931a23;}.cls-99{fill:#941a22;}.cls-100{fill:#951a22;}.cls-101{fill:#961a22;}.cls-102{fill:#971922;}.cls-103{fill:#981922;}.cls-104{fill:#991921;}.cls-105{fill:#9a1921;}.cls-106{fill:#9b1821;}.cls-107{fill:#9c1821;}.cls-108{fill:#9d1821;}.cls-109{fill:#9e1820;}.cls-110{fill:#9f1720;}.cls-111{fill:#a01720;}.cls-112{fill:#a11720;}.cls-113{fill:#a21720;}.cls-114{fill:#a3161f;}.cls-115{fill:#a4161f;}.cls-116{fill:#a5161f;}.cls-117{fill:#a6161f;}.cls-118{fill:#a7151f;}.cls-119{fill:#a8151e;}.cls-120{fill:#a9151e;}.cls-121{fill:#aa151e;}.cls-122{fill:#ab141e;}.cls-123{fill:#ac141e;}.cls-124{fill:#ad141d;}.cls-125{fill:#ae141d;}.cls-126{fill:#af131d;}.cls-127{fill:#b0131d;}.cls-128{fill:#b1131d;}.cls-129{fill:#b2131d;}.cls-130{fill:#b3121c;}.cls-131{fill:#b4121c;}.cls-132{fill:#b5121c;}.cls-133{fill:#b6121c;}.cls-134{fill:#b7111c;}.cls-135{fill:#b8111b;}.cls-136{fill:#b9111b;}.cls-137{fill:#ba101b;}.cls-138{fill:#bb101b;}.cls-139{fill:#bc101b;}.cls-140{fill:#bd101a;}.cls-141{fill:#be0f1a;}.cls-142{fill:#bf0f1a;}.cls-143{fill:#c00f1a;}.cls-144{fill:#c10f1a;}.cls-145{fill:#c20e19;}.cls-146{fill:#c30e19;}.cls-147{fill:#c40e19;}.cls-148{fill:#c50e19;}.cls-149{fill:#c60d19;}.cls-150{fill:#c70d18;}.cls-151{fill:#c80d18;}.cls-152{fill:#c90d18;}.cls-153{fill:#ca0c18;}.cls-154{fill:#cb0c18;}.cls-155{fill:#cc0c17;}.cls-156{fill:#cd0c17;}.cls-157{fill:#ce0b17;}.cls-158{fill:#cf0b17;}.cls-159{fill:#d00b17;}.cls-160{fill:#d10b17;}.cls-161{fill:#d20a16;}.cls-162{fill:#d30a16;}.cls-163{fill:#d40a16;}.cls-164{fill:#d50a16;}.cls-165{fill:#d60916;}.cls-166{fill:#d70915;}.cls-167{fill:#d80915;}.cls-168{fill:#d90915;}.cls-169{fill:#da0815;}.cls-170{fill:#db0815;}.cls-171{fill:#dc0814;}.cls-172{fill:#dd0814;}.cls-173{fill:#de0714;}.cls-174{fill:#df0714;}.cls-175{fill:#e00714;}.cls-176{fill:#e10713;}.cls-177{fill:#e20613;}.cls-178{fill:#e30613;}.cls-179{fill:#f2f2f2;}</style><clipPath id="clip-path"><circle class="cls-1" cx="32" cy="32" r="32"/></clipPath></defs><g class="cls-2"><polygon class="cls-3" points="0 63.6 0.9 64 0 64 0 63.6"/><polygon class="cls-4" points="0 63.1 2 64 0.9 64 0 63.6 0 63.1"/><polygon class="cls-5" points="0 62.7 3.1 64 2 64 0 63.1 0 62.7"/><polygon class="cls-6" points="0 62.2 4.2 64 3.1 64 0 62.7 0 62.2"/><polygon class="cls-7" points="0 61.7 5.3 64 4.2 64 0 62.2 0 61.7"/><polygon class="cls-8" points="0 61.3 6.4 64 5.3 64 0 61.7 0 61.3"/><polygon class="cls-9" points="0 60.8 7.5 64 6.4 64 0 61.3 0 60.8"/><polygon class="cls-10" points="0 60.3 8.7 64 7.5 64 0 60.8 0 60.3"/><polygon class="cls-11" points="0 59.8 9.8 64 8.7 64 0 60.3 0 59.8"/><polygon class="cls-12" points="0 59.4 10.9 64 9.8 64 0 59.8 0 59.4"/><polygon class="cls-13" points="0 58.9 12 64 10.9 64 0 59.4 0 58.9"/><polygon class="cls-14" points="0 58.4 13.1 64 12 64 0 58.9 0 58.4"/><polygon class="cls-15" points="0 57.9 14.2 64 13.1 64 0 58.4 0 57.9"/><polygon class="cls-16" points="0 57.5 15.3 64 14.2 64 0 57.9 0 57.5"/><polygon class="cls-17" points="0 57 16.4 64 15.3 64 0 57.5 0 57"/><polygon class="cls-18" points="0 56.5 17.5 64 16.4 64 0 57 0 56.5"/><polygon class="cls-19" points="0 56 18.6 64 17.5 64 0 56.5 0 56"/><polygon class="cls-20" points="0 55.6 19.8 64 18.6 64 0 56 0 55.6"/><polygon class="cls-21" points="0 55.1 20.9 64 19.8 64 0 55.6 0 55.1"/><polygon class="cls-22" points="0 54.6 22 64 20.9 64 0 55.1 0 54.6"/><polygon class="cls-23" points="0 54.1 23.1 64 22 64 0 54.6 0 54.1"/><polygon class="cls-24" points="0 53.7 24.2 64 23.1 64 0 54.1 0 53.7"/><polygon class="cls-25" points="0 53.2 25.3 64 24.2 64 0 53.7 0 53.2"/><polygon class="cls-26" points="0 52.7 26.4 64 25.3 64 0 53.2 0 52.7"/><polygon class="cls-27" points="0 52.2 27.5 64 26.4 64 0 52.7 0 52.2"/><polygon class="cls-28" points="0 51.8 28.6 64 27.5 64 0 52.2 0 51.8"/><polygon class="cls-29" points="0 51.3 29.8 64 28.6 64 0 51.8 0 51.3"/><polygon class="cls-30" points="0 50.8 30.9 64 29.8 64 0 51.3 0 50.8"/><polygon class="cls-31" points="0 50.3 32 64 30.9 64 0 50.8 0 50.3"/><polygon class="cls-32" points="0 49.9 33.1 64 32 64 0 50.3 0 49.9"/><polygon class="cls-33" points="0 49.4 34.2 64 33.1 64 0 49.9 0 49.4"/><polygon class="cls-34" points="0 48.9 35.3 64 34.2 64 0 49.4 0 48.9"/><polygon class="cls-35" points="0 48.4 36.4 64 35.3 64 0 48.9 0 48.4"/><polygon class="cls-36" points="0 48 37.5 64 36.4 64 0 48.4 0 48"/><polygon class="cls-37" points="0 47.5 38.6 64 37.5 64 0 48 0 47.5"/><polygon class="cls-38" points="0 47 39.7 64 38.6 64 0 47.5 0 47"/><polygon class="cls-39" points="0 46.6 40.9 64 39.7 64 0 47 0 46.6"/><polygon class="cls-40" points="0 46.1 42 64 40.9 64 0 46.6 0 46.1"/><polygon class="cls-41" points="0 45.6 43.1 64 42 64 0 46.1 0 45.6"/><polygon class="cls-42" points="0 45.1 44.2 64 43.1 64 0 45.6 0 45.1"/><polygon class="cls-43" points="0 44.7 45.3 64 44.2 64 0 45.1 0 44.7"/><polygon class="cls-44" points="0 44.2 46.4 64 45.3 64 0 44.7 0 44.2"/><polygon class="cls-45" points="0 43.7 47.5 64 46.4 64 0 44.2 0 43.7"/><polygon class="cls-46" points="0 43.2 48.6 64 47.5 64 0 43.7 0 43.2"/><polygon class="cls-47" points="0 42.8 49.7 64 48.6 64 0 43.2 0 42.8"/><polygon class="cls-48" points="0 42.3 50.9 64 49.7 64 0 42.8 0 42.3"/><polygon class="cls-49" points="0 41.8 52 64 50.9 64 0 42.3 0 41.8"/><polygon class="cls-50" points="0 41.3 53.1 64 52 64 0 41.8 0 41.3"/><polygon class="cls-51" points="0 40.9 54.2 64 53.1 64 0 41.3 0 40.9"/><polygon class="cls-52" points="0 40.4 55.3 64 54.2 64 0 40.9 0 40.4"/><polygon class="cls-53" points="0 39.9 56.4 64 55.3 64 0 40.4 0 39.9"/><polygon class="cls-54" points="0 39.4 57.5 64 56.4 64 0 39.9 0 39.4"/><polygon class="cls-55" points="0 39 58.6 64 57.5 64 0 39.4 0 39"/><polygon class="cls-56" points="0 38.5 59.7 64 58.6 64 0 39 0 38.5"/><polygon class="cls-57" points="0 38 60.2 63.7 60.1 64 59.7 64 0 38.5 0 38"/><polygon class="cls-58" points="0 37.5 60.4 63.3 60.2 63.7 0 38 0 37.5"/><polygon class="cls-59" points="0 37.1 60.5 62.9 60.4 63.3 0 37.5 0 37.1"/><polygon class="cls-60" points="0 36.6 60.7 62.5 60.5 62.9 0 37.1 0 36.6"/><polygon class="cls-61" points="0 36.1 60.9 62.1 60.7 62.5 0 36.6 0 36.1"/><polygon class="cls-62" points="0 35.6 61 61.7 60.9 62.1 0 36.1 0 35.6"/><polygon class="cls-63" points="0 35.2 61.2 61.3 61 61.7 0 35.6 0 35.2"/><polygon class="cls-64" points="0 34.7 61.4 60.9 61.2 61.3 0 35.2 0 34.7"/><polygon class="cls-65" points="0 34.2 61.5 60.5 61.4 60.9 0 34.7 0 34.2"/><polygon class="cls-66" points="0 33.7 61.7 60.1 61.5 60.5 0 34.2 0 33.7"/><polygon class="cls-67" points="0 33.3 61.9 59.7 61.7 60.1 0 33.7 0 33.3"/><polygon class="cls-68" points="0 32.8 62.1 59.3 61.9 59.7 0 33.3 0 32.8"/><polygon class="cls-69" points="0 32.3 62.2 58.9 62.1 59.3 0 32.8 0 32.3"/><polygon class="cls-70" points="0 31.9 62.4 58.5 62.2 58.9 0 32.3 0 31.9"/><polygon class="cls-71" points="0 31.4 62.6 58.1 62.4 58.5 0 31.9 0 31.4"/><polygon class="cls-72" points="0 30.9 62.7 57.7 62.6 58.1 0 31.4 0 30.9"/><polygon class="cls-73" points="0 30.4 62.9 57.3 62.7 57.7 0 30.9 0 30.4"/><polygon class="cls-74" points="0 30 63.1 56.9 62.9 57.3 0 30.4 0 30"/><polygon class="cls-75" points="0 29.5 63.3 56.5 63.1 56.9 0 30 0 29.5"/><polygon class="cls-76" points="0 29 63.4 56.1 63.3 56.5 0 29.5 0 29"/><polygon class="cls-77" points="0 28.5 63.6 55.7 63.4 56.1 0 29 0 28.5"/><polygon class="cls-78" points="0 28.1 63.8 55.3 63.6 55.7 0 28.5 0 28.1"/><polygon class="cls-79" points="0 27.6 63.9 54.9 63.8 55.3 0 28.1 0 27.6"/><polygon class="cls-80" points="0 27.1 64 54.4 64 54.8 63.9 54.9 0 27.6 0 27.1"/><polygon class="cls-81" points="0 26.6 64 54 64 54.4 0 27.1 0 26.6"/><polygon class="cls-82" points="0 26.2 64 53.5 64 54 0 26.6 0 26.2"/><polygon class="cls-83" points="0 25.7 64 53 64 53.5 0 26.2 0 25.7"/><polygon class="cls-84" points="0 25.2 64 52.5 64 53 0 25.7 0 25.2"/><polygon class="cls-85" points="0 24.7 64 52.1 64 52.5 0 25.2 0 24.7"/><polygon class="cls-86" points="0 24.3 64 51.6 64 52.1 0 24.7 0 24.3"/><polygon class="cls-87" points="0 23.8 64 51.1 64 51.6 0 24.3 0 23.8"/><polygon class="cls-88" points="0 23.3 64 50.6 64 51.1 0 23.8 0 23.3"/><polygon class="cls-89" points="0 22.8 64 50.2 64 50.6 0 23.3 0 22.8"/><polygon class="cls-90" points="0 22.4 64 49.7 64 50.2 0 22.8 0 22.4"/><polygon class="cls-91" points="0 21.9 64 49.2 64 49.7 0 22.4 0 21.9"/><polygon class="cls-92" points="0 21.4 64 48.7 64 49.2 0 21.9 0 21.4"/><polygon class="cls-93" points="0 20.9 64 48.3 64 48.7 0 21.4 0 20.9"/><polygon class="cls-94" points="0 20.5 64 47.8 64 48.3 0 20.9 0 20.5"/><polygon class="cls-95" points="0 20 64 47.3 64 47.8 0 20.5 0 20"/><polygon class="cls-96" points="0 19.5 64 46.9 64 47.3 0 20 0 19.5"/><polygon class="cls-97" points="0 19 64 46.4 64 46.9 0 19.5 0 19"/><polygon class="cls-98" points="0 18.6 64 45.9 64 46.4 0 19 0 18.6"/><polygon class="cls-99" points="0 18.1 64 45.4 64 45.9 0 18.6 0 18.1"/><polygon class="cls-100" points="0 17.6 64 45 64 45.4 0 18.1 0 17.6"/><polygon class="cls-101" points="0 17.2 64 44.5 64 45 0 17.6 0 17.2"/><polygon class="cls-102" points="0 16.7 64 44 64 44.5 0 17.2 0 16.7"/><polygon class="cls-103" points="0 16.2 64 43.5 64 44 0 16.7 0 16.2"/><polygon class="cls-104" points="0 15.7 64 43.1 64 43.5 0 16.2 0 15.7"/><polygon class="cls-105" points="0 15.3 64 42.6 64 43.1 0 15.7 0 15.3"/><polygon class="cls-106" points="0 14.8 64 42.1 64 42.6 0 15.3 0 14.8"/><polygon class="cls-107" points="0 14.3 64 41.6 64 42.1 0 14.8 0 14.3"/><polygon class="cls-108" points="0 13.8 64 41.2 64 41.6 0 14.3 0 13.8"/><polygon class="cls-109" points="0 13.4 64 40.7 64 41.2 0 13.8 0 13.4"/><polygon class="cls-110" points="0 12.9 64 40.2 64 40.7 0 13.4 0 12.9"/><polygon class="cls-111" points="0 12.4 64 39.7 64 40.2 0 12.9 0 12.4"/><polygon class="cls-112" points="0 11.9 64 39.3 64 39.7 0 12.4 0 11.9"/><polygon class="cls-113" points="0 11.5 64 38.8 64 39.3 0 11.9 0 11.5"/><polygon class="cls-114" points="0 11 64 38.3 64 38.8 0 11.5 0 11"/><polygon class="cls-115" points="0 10.5 64 37.8 64 38.3 0 11 0 10.5"/><polygon class="cls-116" points="0 10 64 37.4 64 37.8 0 10.5 0 10"/><polygon class="cls-117" points="0 9.6 64 36.9 64 37.4 0 10 0 9.6"/><polygon class="cls-118" points="0 9.2 0.1 9.1 64 36.4 64 36.9 0 9.6 0 9.2"/><polygon class="cls-119" points="0.1 9.1 0.2 8.7 64 35.9 64 36.4 0.1 9.1"/><polygon class="cls-120" points="0.2 8.7 0.4 8.3 64 35.5 64 35.9 0.2 8.7"/><polygon class="cls-121" points="0.4 8.3 0.6 7.9 64 35 64 35.5 0.4 8.3"/><polygon class="cls-122" points="0.6 7.9 0.7 7.5 64 34.5 64 35 0.6 7.9"/><polygon class="cls-123" points="0.7 7.5 0.9 7.1 64 34 64 34.5 0.7 7.5"/><polygon class="cls-124" points="0.9 7.1 1.1 6.7 64 33.6 64 34 0.9 7.1"/><polygon class="cls-125" points="1.1 6.7 1.3 6.3 64 33.1 64 33.6 1.1 6.7"/><polygon class="cls-126" points="1.3 6.3 1.4 5.9 64 32.6 64 33.1 1.3 6.3"/><polygon class="cls-127" points="1.4 5.9 1.6 5.5 64 32.2 64 32.6 1.4 5.9"/><polygon class="cls-128" points="1.6 5.5 1.8 5.1 64 31.7 64 32.2 1.6 5.5"/><polygon class="cls-129" points="1.8 5.1 1.9 4.7 64 31.2 64 31.7 1.8 5.1"/><polygon class="cls-130" points="1.9 4.7 2.1 4.3 64 30.7 64 31.2 1.9 4.7"/><polygon class="cls-131" points="2.1 4.3 2.3 3.9 64 30.3 64 30.7 2.1 4.3"/><polygon class="cls-132" points="2.3 3.9 2.5 3.5 64 29.8 64 30.3 2.3 3.9"/><polygon class="cls-133" points="2.5 3.5 2.6 3.1 64 29.3 64 29.8 2.5 3.5"/><polygon class="cls-134" points="2.6 3.1 2.8 2.7 64 28.8 64 29.3 2.6 3.1"/><polygon class="cls-135" points="2.8 2.7 3 2.3 64 28.4 64 28.8 2.8 2.7"/><polygon class="cls-136" points="3 2.3 3.1 1.9 64 27.9 64 28.4 3 2.3"/><polygon class="cls-137" points="3.1 1.9 3.3 1.5 64 27.4 64 27.9 3.1 1.9"/><polygon class="cls-138" points="3.3 1.5 3.5 1.1 64 26.9 64 27.4 3.3 1.5"/><polygon class="cls-139" points="3.5 1.1 3.6 0.7 64 26.5 64 26.9 3.5 1.1"/><polygon class="cls-140" points="3.6 0.7 3.8 0.3 64 26 64 26.5 3.6 0.7"/><polygon class="cls-141" points="3.8 0.3 3.9 0 4.3 0 64 25.5 64 26 3.8 0.3"/><polygon class="cls-142" points="5.4 0 64 25 64 25.5 4.3 0 5.4 0"/><polygon class="cls-143" points="6.5 0 64 24.6 64 25 5.4 0 6.5 0"/><polygon class="cls-144" points="7.6 0 64 24.1 64 24.6 6.5 0 7.6 0"/><polygon class="cls-145" points="8.7 0 64 23.6 64 24.1 7.6 0 8.7 0"/><polygon class="cls-146" points="9.8 0 64 23.1 64 23.6 8.7 0 9.8 0"/><polygon class="cls-147" points="10.9 0 64 22.7 64 23.1 9.8 0 10.9 0"/><polygon class="cls-148" points="12 0 64 22.2 64 22.7 10.9 0 12 0"/><polygon class="cls-149" points="13.1 0 64 21.7 64 22.2 12 0 13.1 0"/><polygon class="cls-150" points="14.3 0 64 21.2 64 21.7 13.1 0 14.3 0"/><polygon class="cls-151" points="15.4 0 64 20.8 64 21.2 14.3 0 15.4 0"/><polygon class="cls-152" points="16.5 0 64 20.3 64 20.8 15.4 0 16.5 0"/><polygon class="cls-153" points="17.6 0 64 19.8 64 20.3 16.5 0 17.6 0"/><polygon class="cls-154" points="18.7 0 64 19.3 64 19.8 17.6 0 18.7 0"/><polygon class="cls-155" points="19.8 0 64 18.9 64 19.3 18.7 0 19.8 0"/><polygon class="cls-156" points="20.9 0 64 18.4 64 18.9 19.8 0 20.9 0"/><polygon class="cls-157" points="22 0 64 17.9 64 18.4 20.9 0 22 0"/><polygon class="cls-158" points="23.1 0 64 17.4 64 17.9 22 0 23.1 0"/><polygon class="cls-159" points="24.2 0 64 17 64 17.4 23.1 0 24.2 0"/><polygon class="cls-160" points="25.4 0 64 16.5 64 17 24.2 0 25.4 0"/><polygon class="cls-161" points="26.5 0 64 16 64 16.5 25.4 0 26.5 0"/><polygon class="cls-162" points="27.6 0 64 15.6 64 16 26.5 0 27.6 0"/><polygon class="cls-163" points="28.7 0 64 15.1 64 15.6 27.6 0 28.7 0"/><polygon class="cls-164" points="29.8 0 64 14.6 64 15.1 28.7 0 29.8 0"/><polygon class="cls-165" points="30.9 0 64 14.1 64 14.6 29.8 0 30.9 0"/><polygon class="cls-166" points="32 0 64 13.7 64 14.1 30.9 0 32 0"/><polygon class="cls-167" points="33.1 0 64 13.2 64 13.7 32 0 33.1 0"/><polygon class="cls-168" points="34.2 0 64 12.7 64 13.2 33.1 0 34.2 0"/><polygon class="cls-169" points="35.4 0 64 12.2 64 12.7 34.2 0 35.4 0"/><polygon class="cls-170" points="36.5 0 64 11.8 64 12.2 35.4 0 36.5 0"/><polygon class="cls-171" points="37.6 0 64 11.3 64 11.8 36.5 0 37.6 0"/><polygon class="cls-172" points="38.7 0 64 10.8 64 11.3 37.6 0 38.7 0"/><polygon class="cls-173" points="39.8 0 64 10.3 64 10.8 38.7 0 39.8 0"/><polygon class="cls-174" points="40.9 0 64 9.9 64 10.3 39.8 0 40.9 0"/><polygon class="cls-175" points="42 0 64 9.4 64 9.9 40.9 0 42 0"/><polygon class="cls-176" points="43.1 0 64 8.9 64 9.4 42 0 43.1 0"/><polygon class="cls-177" points="44.2 0 64 8.4 64 8.9 43.1 0 44.2 0"/><polygon class="cls-178" points="45.3 0 64 8 64 8.4 44.2 0 45.3 0"/><polygon class="cls-178" points="64 8 45.3 0 64 0 64 8"/></g><path class="cls-179" d="M32,10.9A20.4,20.4,0,0,0,17.9,46.2a2,2,0,1,0,2.7-2.9,16.3,16.3,0,0,1-5.1-11.9A15.8,15.8,0,0,1,17,24.5l1.8,1.9a1.9,1.9,0,0,0,2.8,0,1.9,1.9,0,0,0,0-2.8l-2.4-2.4h-.1A16.3,16.3,0,0,1,30,15v3.2a2,2,0,1,0,4,0V15a16.4,16.4,0,0,1,10.9,6l-.2.2-2.5,2.4a2.1,2.1,0,0,0,0,2.8,1.9,1.9,0,0,0,2.8,0l2-1.9a15.8,15.8,0,0,1,1.5,6.9,16.3,16.3,0,0,1-5.3,12.1,2,2,0,0,0-.1,2.8,2,2,0,0,0,1.4.6,2.4,2.4,0,0,0,1.4-.5A20.5,20.5,0,0,0,32,10.9Z"/><path class="cls-179" d="M37.4,29.3l-9,4.8a3.4,3.4,0,0,0-.8,5.4l.3.2h0a3.4,3.4,0,0,0,5.5-1Z"/></svg>