<svg id="Layer_1" data-name="Layer 1" xmlns="http://www.w3.org/2000/svg" viewBox="0 0 64 64"><defs><style>.cls-1{opacity:0.5;}.cls-2{fill:#b5b5b5;}</style></defs><path d="M57.2,40.7a2,2,0,0,1-2-2V16.1a2,2,0,1,1,3.9,0V38.7A2,2,0,0,1,57.2,40.7Z"/><path d="M51.5,58.6h-39A7.6,7.6,0,0,1,4.9,51V13a7.6,7.6,0,0,1,7.6-7.6H49a2,2,0,0,1,2,1.9,2,2,0,0,1-2,2H12.5A3.8,3.8,0,0,0,8.8,13V51a3.8,3.8,0,0,0,3.7,3.7h39A3.8,3.8,0,0,0,55.2,51V38.7a2,2,0,0,1,2-1.9,2,2,0,0,1,1.9,1.9V51A7.6,7.6,0,0,1,51.5,58.6Z"/><g class="cls-1"><path class="cls-2" d="M12.6,48.9v-34a2.9,2.9,0,0,1,2.8-2.8H48.6a2.8,2.8,0,0,1,2.7,2.8v34a3,3,0,0,1-2.9,3H15.6A3.1,3.1,0,0,1,12.6,48.9Z"/></g><path d="M40.2,23.3,26.5,30.5a5.1,5.1,0,0,0-1.2,8.2l.4.5h0a5.1,5.1,0,0,0,8.4-1.7Z"/></svg>