<?xml version="1.0" encoding="utf-8"?>
<!-- Generator: Adobe Illustrator 25.4.1, SVG Export Plug-In . SVG Version: 6.00 Build 0)  -->
<svg version="1.1" id="Layer_1" xmlns="http://www.w3.org/2000/svg" xmlns:xlink="http://www.w3.org/1999/xlink" x="0px" y="0px"
	 viewBox="0 0 64 64" style="enable-background:new 0 0 64 64;" xml:space="preserve">
<style type="text/css">
	.st0{fill:#929495;}
	.st1{fill:#2E3436;}
</style>
<g>
	<path class="st0" d="M51.3,48.9v-34c0-1.5-1.2-2.7-2.7-2.7l0,0H15.4c-1.5,0-2.7,1.2-2.8,2.7v34c0.1,1.6,1.4,2.9,3,3h32.8
		C50,51.8,51.3,50.5,51.3,48.9z"/>
</g>
<path class="st1" d="M51,59.1H13c-4.2,0-7.6-3.4-7.6-7.6v-39c0-4.2,3.4-7.6,7.6-7.6l0,0h12.8c1.1,0,1.9,0.8,2,1.9c0,1.1-0.9,2-2,2
	H13c-2,0.1-3.6,1.7-3.7,3.7v39c0.1,2,1.7,3.6,3.7,3.7h38c2-0.1,3.6-1.7,3.7-3.7v-39c-0.1-2-1.7-3.6-3.7-3.7H38.7
	c-1.1-0.1-1.9-0.9-1.9-2c0.1-1,0.9-1.8,1.9-1.9H51c4.2,0,7.6,3.4,7.6,7.6v39C58.6,55.7,55.2,59.1,51,59.1z"/>
<path class="st1" d="M32.9,21.3L37.6,36c0.8,2.7-0.7,5.7-3.5,6.5c-0.5,0.1-1,0.2-1.5,0.2H32c-2.8,0-5.1-2.2-5.2-5
	c0-0.7,0.1-1.3,0.4-2L32.9,21.3z"/>
</svg>
