<?xml version="1.0" encoding="utf-8"?>
<!-- Generator: Adobe Illustrator 25.4.1, SVG Export Plug-In . SVG Version: 6.00 Build 0)  -->
<svg version="1.1" id="Layer_1" xmlns="http://www.w3.org/2000/svg" xmlns:xlink="http://www.w3.org/1999/xlink" x="0px" y="0px"
	 viewBox="0 0 64 64" style="enable-background:new 0 0 64 64;" xml:space="preserve">
<style type="text/css">
	.st0{fill:#2E3436;}
	.st1{fill:#929495;}
</style>
<path class="st0" d="M59.1,15.2c-0.2-1.1-1.3-1.8-2.4-1.5C55.6,14,55,15,55.2,16.1v22.6V51c-0.1,2-1.7,3.6-3.7,3.7h-39
	c-2-0.1-3.6-1.7-3.7-3.7V13c0.1-2,1.7-3.6,3.7-3.7H49c1.1,0,2-0.9,2-2c-0.1-1.1-0.9-1.9-2-1.9H12.5c-4.2,0-7.6,3.4-7.6,7.6v38
	c0,4.2,3.4,7.6,7.6,7.6h39c4.2,0,7.6-3.4,7.6-7.6V38.7V16.1C59.2,15.8,59.2,15.5,59.1,15.2z"/>
<g>
	<path class="st1" d="M12.6,48.9v-34c0.1-1.5,1.3-2.7,2.8-2.8h33.2c1.5,0.1,2.7,1.3,2.7,2.8v34c0,1.6-1.3,2.9-2.9,3H15.6
		C14,51.8,12.7,50.5,12.6,48.9z"/>
</g>
<path class="st0" d="M40.2,23.3l-13.7,7.2c-2.5,1.3-3.5,4.4-2.2,6.9c0.3,0.5,0.6,0.9,1,1.3l0.4,0.5l0,0c2,2,5.2,2.1,7.2,0.1
	c0.5-0.5,0.9-1.1,1.2-1.8L40.2,23.3z"/>
</svg>
