<?xml version="1.0" encoding="utf-8"?>
<!-- Generator: Adobe Illustrator 25.4.1, SVG Export Plug-In . SVG Version: 6.00 Build 0)  -->
<svg version="1.1" id="Layer_1" xmlns="http://www.w3.org/2000/svg" xmlns:xlink="http://www.w3.org/1999/xlink" x="0px" y="0px"
	 viewBox="0 0 64 64" style="enable-background:new 0 0 64 64;" xml:space="preserve">
<style type="text/css">
	.st0{fill:#929495;}
	.st1{fill:#2E3436;}
</style>
<g>
	<path class="st0" d="M51.3,48.9v-34c0-1.5-1.2-2.7-2.7-2.7l0,0H15.4c-1.5,0-2.7,1.2-2.8,2.7v34c0.1,1.6,1.4,2.9,3,3h32.8
		C50,51.8,51.3,50.5,51.3,48.9z"/>
</g>
<path class="st1" d="M51,4.9H38.7H16.1c-1.1,0-1.9,0.8-2,1.9c0,1.1,0.9,2,2,2h22.6H51c2,0.1,3.6,1.7,3.7,3.7v39
	c-0.1,2-1.7,3.6-3.7,3.7H13c-2-0.1-3.6-1.7-3.7-3.7V15c0-1.1-0.9-2-2-2c-1.1,0.1-1.9,0.9-1.9,2v36.5c0,4.2,3.4,7.6,7.6,7.6h38
	c4.2,0,7.6-3.4,7.6-7.6v-39C58.6,8.3,55.2,4.9,51,4.9z"/>
<path class="st1" d="M23.8,23.3l13.7,7.2c2.5,1.3,3.5,4.4,2.2,6.9c-0.3,0.5-0.6,0.9-1,1.3l-0.4,0.5l0,0c-2,2-5.3,2-7.4-0.1
	c-0.4-0.4-0.8-1-1-1.5L23.8,23.3z"/>
</svg>
