<?xml version="1.0" encoding="utf-8"?>
<!-- Generator: Adobe Illustrator 25.1.0, SVG Export Plug-In . SVG Version: 6.00 Build 0)  -->
<svg version="1.1" id="Layer_1" xmlns="http://www.w3.org/2000/svg" xmlns:xlink="http://www.w3.org/1999/xlink" x="0px" y="0px"
	 viewBox="0 0 32 32" style="enable-background:new 0 0 32 32;" xml:space="preserve">
<style type="text/css">
	.st0{fill:url(#SVGID_1_);}
	.st1{fill:url(#SVGID_2_);}
	.st2{fill:url(#SVGID_3_);}
	.st3{fill:url(#SVGID_4_);}
	.st4{fill:url(#SVGID_5_);}
</style>
<g>
	<g>
		<linearGradient id="SVGID_1_" gradientUnits="userSpaceOnUse" x1="171.8257" y1="345.9363" x2="171.8257" y2="388.0145">
			<stop  offset="0" style="stop-color:#1379E6"/>
			<stop  offset="1" style="stop-color:#115CCC"/>
		</linearGradient>
		<path class="st0" d="M156.8,353.9v13v13c0,4.8,3.9,8.7,8.7,8.7h11.7c0.3,0,0.6-0.2,0.7-0.6l0.7-2.9c0.1-0.5-0.2-0.9-0.7-0.9h-12.4
			c-2.4,0-4.3-1.9-4.3-4.3v-13v-13c0-2.4,1.9-4.3,4.3-4.3H184c0.2,0,0.4-0.1,0.6-0.3l2.1-2.9c0.3-0.5,0-1.1-0.6-1.1h-20.7
			C160.7,345.2,156.8,349.1,156.8,353.9z"/>
		<linearGradient id="SVGID_2_" gradientUnits="userSpaceOnUse" x1="212.3563" y1="345.9363" x2="212.3563" y2="388.0145">
			<stop  offset="0" style="stop-color:#1379E6"/>
			<stop  offset="1" style="stop-color:#115CCC"/>
		</linearGradient>
		<path class="st1" d="M221.1,353.9h-0.7l0,0c0-4.8-3.9-8.7-8.7-8.7h-5.9c0,0.4-0.1,0.7-0.1,1.1l-0.5,2.4c-0.1,0.5,0.2,0.9,0.7,0.9
			h5.9c2.4,0,4.3,1.9,4.3,4.3v1.4c0,1.6,1.3,2.9,2.9,2.9h1.4c0.8,0,1.4,0.6,1.4,1.4v7.2v7.2c0,0.8-0.6,1.4-1.4,1.4h-1.4
			c-1.6,0-2.9,1.3-2.9,2.9v1.4c0,2.4-1.9,4.3-4.3,4.3h-10.2c-0.2,0-0.4,0.1-0.6,0.3l-2.2,2.9c-0.4,0.5,0,1.2,0.6,1.2h12.4
			c4.8,0,8.7-3.9,8.7-8.7l0,0h0.7c2.8,0,5.1-2.3,5.1-5.1v-7.9V359C226.1,356.2,223.9,353.9,221.1,353.9z"/>
	</g>
	<linearGradient id="SVGID_3_" gradientUnits="userSpaceOnUse" x1="197.2749" y1="307.009" x2="192.2828" y2="400.8599">
		<stop  offset="0" style="stop-color:#2ADE7A"/>
		<stop  offset="1" style="stop-color:#20B48D"/>
	</linearGradient>
	<path class="st2" d="M206.6,366c0-11.3-7-17.8-12.6-23l-0.3-0.3c-0.5-0.5-1.3-0.6-1.9-0.3c-0.7,0.3-1.1,0.9-1.1,1.6
		c0,5.7-2.2,9.3-4.3,12.9c-0.6,1-1.1,1.9-1.6,2.9c-1.2,2.2-2,4.5-2,7.2c0,0.2,0,0.4,0,0.7c0,0,0,0,0,0.1c0,0.2,0,0.4,0,0.6
		c0,0,0,0.1,0,0.1c0,0.2,0,0.4,0,0.6c0,0,0,0.1,0,0.1c0,0.2,0,0.4,0.1,0.6c0,0,0,0.1,0,0.1c0,0.2,0.1,0.4,0.1,0.6c0,0,0,0,0,0.1
		c0,0.2,0.1,0.4,0.1,0.5c0,0,0,0,0,0c0,0.2,0.1,0.4,0.1,0.5c0,0,0,0.1,0,0.1c0,0.2,0.1,0.3,0.1,0.5c0,0,0,0.1,0,0.1
		c0,0.2,0.1,0.3,0.1,0.5c0,0,0,0.1,0,0.1c0.1,0.2,0.1,0.3,0.2,0.5c0,0,0,0.1,0,0.1c0.1,0.2,0.1,0.3,0.2,0.5c0,0,0,0,0,0.1
		c0.1,0.1,0.1,0.3,0.2,0.4c0,0,0,0.1,0,0.1c0.1,0.1,0.1,0.3,0.2,0.4c0,0,0,0.1,0.1,0.1c0.1,0.1,0.1,0.3,0.2,0.4c0,0,0,0.1,0.1,0.1
		c0.1,0.1,0.1,0.2,0.2,0.4c0,0,0,0.1,0.1,0.1c0.1,0.1,0.2,0.2,0.2,0.4c0,0,0,0.1,0.1,0.1c0.1,0.1,0.2,0.2,0.2,0.3c0,0,0,0.1,0.1,0.1
		c0.1,0.1,0.2,0.2,0.3,0.3c0,0,0,0.1,0.1,0.1c0.1,0.1,0.2,0.2,0.3,0.3c0,0,0.1,0.1,0.1,0.1c0.1,0.1,0.2,0.2,0.3,0.3
		c0,0,0.1,0.1,0.1,0.1c0.1,0.1,0.2,0.2,0.3,0.3c0,0,0.1,0,0.1,0.1c0.1,0.1,0.2,0.2,0.3,0.3c0,0,0.1,0,0.1,0.1
		c0.1,0.1,0.2,0.1,0.3,0.2c0,0,0.1,0,0.1,0.1c0.1,0.1,0.2,0.1,0.3,0.2c0,0,0.1,0,0.1,0.1c0.1,0.1,0.2,0.1,0.4,0.2c0,0,0.1,0,0.1,0.1
		c0.1,0.1,0.2,0.1,0.4,0.2c0,0,0.1,0,0.1,0.1c0.1,0.1,0.3,0.1,0.4,0.2c0,0,0.1,0,0.1,0c0.1,0,0.2,0.1,0.4,0.1c0,0,0.1,0,0.1,0
		c0.1,0,0.2,0.1,0.3,0.1c-1.5,3.9-4.1,7.6-9,8.9c-0.5,0.1-1,0.5-1.2,1c-0.2,0.4-0.2,0.8-0.1,1.2c0,0,0,0.1,0,0.1c0,0,0,0,0,0
		c0.2,0.8,0.9,1.3,1.7,1.3l0.5-0.1c6.7-1.8,10-6.8,11.7-11.9C202.8,380.5,206.6,372.9,206.6,366z"/>
</g>
<g>
	<linearGradient id="SVGID_4_" gradientUnits="userSpaceOnUse" x1="16" y1="6.3974" x2="16" y2="25.0804">
		<stop  offset="0" style="stop-color:#1379E6"/>
		<stop  offset="1" style="stop-color:#115CCC"/>
	</linearGradient>
	<path class="st3" d="M29.1,9.9h-0.3V9.6c0-1.9-1.6-3.5-3.5-3.5H4.1c-1.9,0-3.5,1.6-3.5,3.5v6.1v6.1c0,1.9,1.6,3.5,3.5,3.5h21.2
		c1.9,0,3.5-1.6,3.5-3.5v-0.3h0.3c1.2,0,2.2-1,2.2-2.2v-3.5v-3.5C31.4,10.9,30.4,9.9,29.1,9.9z M29.5,15.7v3.5
		c0,0.2-0.1,0.3-0.3,0.3h-1.3c-0.5,0-1,0.4-1,1v1.3c0,0.9-0.7,1.6-1.6,1.6H4.1c-0.9,0-1.6-0.7-1.6-1.6v-6.1V9.6C2.5,8.7,3.3,8,4.1,8
		h21.2c0.9,0,1.6,0.7,1.6,1.6v1.3c0,0.5,0.4,1,1,1h1.3c0.2,0,0.3,0.1,0.3,0.3V15.7z"/>
	<linearGradient id="SVGID_5_" gradientUnits="userSpaceOnUse" x1="14.1458" y1="1.5685" x2="15.0234" y2="22.7555">
		<stop  offset="0" style="stop-color:#FFD845"/>
		<stop  offset="1" style="stop-color:#FF9D21"/>
	</linearGradient>
	<path class="st4" d="M18.5,14.1c-0.1-0.2-0.3-0.3-0.6-0.3l-1.8,0l0.6-3.7c0-0.3-0.1-0.6-0.4-0.7c-0.3-0.1-0.6,0-0.8,0.2L11,16
		c-0.1,0.2-0.2,0.5,0,0.7c0.1,0.2,0.3,0.3,0.6,0.3l1.8,0l-0.6,4.4c0,0.3,0.1,0.6,0.4,0.7l0.2,0c0.2,0,0.3-0.1,0.4-0.2
		c0,0,0.1-0.1,0.1-0.1l4.5-7.1C18.6,14.6,18.6,14.3,18.5,14.1z"/>
</g>
</svg>
