<?xml version="1.0" encoding="UTF-8" standalone="no"?>
<svg
   xmlns:dc="http://purl.org/dc/elements/1.1/"
   xmlns:cc="http://creativecommons.org/ns#"
   xmlns:rdf="http://www.w3.org/1999/02/22-rdf-syntax-ns#"
   xmlns:svg="http://www.w3.org/2000/svg"
   xmlns="http://www.w3.org/2000/svg"
   xmlns:sodipodi="http://sodipodi.sourceforge.net/DTD/sodipodi-0.dtd"
   xmlns:inkscape="http://www.inkscape.org/namespaces/inkscape"
   version="1.1"
   id="Layer_1"
   x="0px"
   y="0px"
   viewBox="0 0 32 32"
   style="enable-background:new 0 0 32 32;"
   xml:space="preserve"
   sodipodi:docname="status_performance.svg"
   inkscape:version="1.0.2 (e86c870879, 2021-01-15)"><metadata
   id="metadata50"><rdf:RDF><cc:Work
       rdf:about=""><dc:format>image/svg+xml</dc:format><dc:type
         rdf:resource="http://purl.org/dc/dcmitype/StillImage" /></cc:Work></rdf:RDF></metadata><defs
   id="defs48">
	<linearGradient
   id="SVGID_4_"
   gradientUnits="userSpaceOnUse"
   x1="16"
   y1="6.3974"
   x2="16"
   y2="25.0804">
		<stop
   offset="0"
   style="stop-color:#1379E6"
   id="stop29" />
		<stop
   offset="1"
   style="stop-color:#115CCC"
   id="stop31" />
	</linearGradient>
	
	<linearGradient
   id="SVGID_5_"
   gradientUnits="userSpaceOnUse"
   x1="14.1458"
   y1="1.5685"
   x2="15.0234"
   y2="22.7555"
   gradientTransform="matrix(2.047938,0,0,2.047938,-15.431,-16.484469)">
		<stop
   offset="0"
   style="stop-color:#FFD845"
   id="stop36" />
		<stop
   offset="1"
   style="stop-color:#FF9D21"
   id="stop38" />
	</linearGradient>
	
</defs><sodipodi:namedview
   pagecolor="#ffffff"
   bordercolor="#666666"
   borderopacity="1"
   objecttolerance="10"
   gridtolerance="10"
   guidetolerance="10"
   inkscape:pageopacity="0"
   inkscape:pageshadow="2"
   inkscape:window-width="1920"
   inkscape:window-height="1142"
   id="namedview46"
   showgrid="false"
   inkscape:zoom="22.96875"
   inkscape:cx="16"
   inkscape:cy="16"
   inkscape:window-x="0"
   inkscape:window-y="0"
   inkscape:window-maximized="1"
   inkscape:current-layer="Layer_1"
   inkscape:document-rotation="0" />
<style
   type="text/css"
   id="style2">
	.st0{fill:url(#SVGID_1_);}
	.st1{fill:url(#SVGID_2_);}
	.st2{fill:url(#SVGID_3_);}
	.st3{fill:url(#SVGID_4_);}
	.st4{fill:url(#SVGID_5_);}
</style>
<g
   id="g27">
	<g
   id="g18">
		<linearGradient
   id="SVGID_1_"
   gradientUnits="userSpaceOnUse"
   x1="171.8257"
   y1="345.9363"
   x2="171.8257"
   y2="388.0145">
			<stop
   offset="0"
   style="stop-color:#1379E6"
   id="stop4" />
			<stop
   offset="1"
   style="stop-color:#115CCC"
   id="stop6" />
		</linearGradient>
		<path
   class="st0"
   d="M156.8,353.9v13v13c0,4.8,3.9,8.7,8.7,8.7h11.7c0.3,0,0.6-0.2,0.7-0.6l0.7-2.9c0.1-0.5-0.2-0.9-0.7-0.9h-12.4    c-2.4,0-4.3-1.9-4.3-4.3v-13v-13c0-2.4,1.9-4.3,4.3-4.3H184c0.2,0,0.4-0.1,0.6-0.3l2.1-2.9c0.3-0.5,0-1.1-0.6-1.1h-20.7    C160.7,345.2,156.8,349.1,156.8,353.9z"
   id="path9" />
		<linearGradient
   id="SVGID_2_"
   gradientUnits="userSpaceOnUse"
   x1="212.3563"
   y1="345.9363"
   x2="212.3563"
   y2="388.0145">
			<stop
   offset="0"
   style="stop-color:#1379E6"
   id="stop11" />
			<stop
   offset="1"
   style="stop-color:#115CCC"
   id="stop13" />
		</linearGradient>
		<path
   class="st1"
   d="M221.1,353.9h-0.7l0,0c0-4.8-3.9-8.7-8.7-8.7h-5.9c0,0.4-0.1,0.7-0.1,1.1l-0.5,2.4c-0.1,0.5,0.2,0.9,0.7,0.9    h5.9c2.4,0,4.3,1.9,4.3,4.3v1.4c0,1.6,1.3,2.9,2.9,2.9h1.4c0.8,0,1.4,0.6,1.4,1.4v7.2v7.2c0,0.8-0.6,1.4-1.4,1.4h-1.4    c-1.6,0-2.9,1.3-2.9,2.9v1.4c0,2.4-1.9,4.3-4.3,4.3h-10.2c-0.2,0-0.4,0.1-0.6,0.3l-2.2,2.9c-0.4,0.5,0,1.2,0.6,1.2h12.4    c4.8,0,8.7-3.9,8.7-8.7l0,0h0.7c2.8,0,5.1-2.3,5.1-5.1v-7.9V359C226.1,356.2,223.9,353.9,221.1,353.9z"
   id="path16" />
	</g>
	<linearGradient
   id="SVGID_3_"
   gradientUnits="userSpaceOnUse"
   x1="197.2749"
   y1="307.009"
   x2="192.2828"
   y2="400.8599">
		<stop
   offset="0"
   style="stop-color:#2ADE7A"
   id="stop20" />
		<stop
   offset="1"
   style="stop-color:#20B48D"
   id="stop22" />
	</linearGradient>
	<path
   class="st2"
   d="M206.6,366c0-11.3-7-17.8-12.6-23l-0.3-0.3c-0.5-0.5-1.3-0.6-1.9-0.3c-0.7,0.3-1.1,0.9-1.1,1.6   c0,5.7-2.2,9.3-4.3,12.9c-0.6,1-1.1,1.9-1.6,2.9c-1.2,2.2-2,4.5-2,7.2c0,0.2,0,0.4,0,0.7c0,0,0,0,0,0.1c0,0.2,0,0.4,0,0.6   c0,0,0,0.1,0,0.1c0,0.2,0,0.4,0,0.6c0,0,0,0.1,0,0.1c0,0.2,0,0.4,0.1,0.6c0,0,0,0.1,0,0.1c0,0.2,0.1,0.4,0.1,0.6c0,0,0,0,0,0.1   c0,0.2,0.1,0.4,0.1,0.5c0,0,0,0,0,0c0,0.2,0.1,0.4,0.1,0.5c0,0,0,0.1,0,0.1c0,0.2,0.1,0.3,0.1,0.5c0,0,0,0.1,0,0.1   c0,0.2,0.1,0.3,0.1,0.5c0,0,0,0.1,0,0.1c0.1,0.2,0.1,0.3,0.2,0.5c0,0,0,0.1,0,0.1c0.1,0.2,0.1,0.3,0.2,0.5c0,0,0,0,0,0.1   c0.1,0.1,0.1,0.3,0.2,0.4c0,0,0,0.1,0,0.1c0.1,0.1,0.1,0.3,0.2,0.4c0,0,0,0.1,0.1,0.1c0.1,0.1,0.1,0.3,0.2,0.4c0,0,0,0.1,0.1,0.1   c0.1,0.1,0.1,0.2,0.2,0.4c0,0,0,0.1,0.1,0.1c0.1,0.1,0.2,0.2,0.2,0.4c0,0,0,0.1,0.1,0.1c0.1,0.1,0.2,0.2,0.2,0.3c0,0,0,0.1,0.1,0.1   c0.1,0.1,0.2,0.2,0.3,0.3c0,0,0,0.1,0.1,0.1c0.1,0.1,0.2,0.2,0.3,0.3c0,0,0.1,0.1,0.1,0.1c0.1,0.1,0.2,0.2,0.3,0.3   c0,0,0.1,0.1,0.1,0.1c0.1,0.1,0.2,0.2,0.3,0.3c0,0,0.1,0,0.1,0.1c0.1,0.1,0.2,0.2,0.3,0.3c0,0,0.1,0,0.1,0.1   c0.1,0.1,0.2,0.1,0.3,0.2c0,0,0.1,0,0.1,0.1c0.1,0.1,0.2,0.1,0.3,0.2c0,0,0.1,0,0.1,0.1c0.1,0.1,0.2,0.1,0.4,0.2c0,0,0.1,0,0.1,0.1   c0.1,0.1,0.2,0.1,0.4,0.2c0,0,0.1,0,0.1,0.1c0.1,0.1,0.3,0.1,0.4,0.2c0,0,0.1,0,0.1,0c0.1,0,0.2,0.1,0.4,0.1c0,0,0.1,0,0.1,0   c0.1,0,0.2,0.1,0.3,0.1c-1.5,3.9-4.1,7.6-9,8.9c-0.5,0.1-1,0.5-1.2,1c-0.2,0.4-0.2,0.8-0.1,1.2c0,0,0,0.1,0,0.1c0,0,0,0,0,0   c0.2,0.8,0.9,1.3,1.7,1.3l0.5-0.1c6.7-1.8,10-6.8,11.7-11.9C202.8,380.5,206.6,372.9,206.6,366z"
   id="path25" />
</g>
<path
   class="st4"
   d="M 22.455853,12.391458 C 22.25106,11.98187 21.841472,11.777077 21.22709,11.777077 h -3.686288 l 1.228763,-7.5773714 c 0,-0.6143814 -0.204794,-1.2287629 -0.819175,-1.4335567 -0.614382,-0.2047938 -1.228764,0 -1.638351,0.4095876 L 7.0963179,16.28254 c -0.2047938,0.409587 -0.4095876,1.023969 0,1.433557 0.2047938,0.409587 0.6143814,0.614381 1.2287629,0.614381 h 3.6862882 l -1.228762,9.010928 c 0,0.614381 0.204793,1.228762 0.819175,1.433556 h 0.409587 c 0.409588,0 0.614382,-0.204794 0.819175,-0.409587 0,0 0.204795,-0.204794 0.204795,-0.204794 L 22.25106,13.62022 c 0.409587,-0.204793 0.409587,-0.819175 0.204793,-1.228762 z"
   id="path41"
   style="fill:url(#SVGID_5_);stroke-width:2.04794" />
</svg>
