<?xml version="1.0" encoding="UTF-8" standalone="no"?>
<svg
   xmlns:dc="http://purl.org/dc/elements/1.1/"
   xmlns:cc="http://creativecommons.org/ns#"
   xmlns:rdf="http://www.w3.org/1999/02/22-rdf-syntax-ns#"
   xmlns:svg="http://www.w3.org/2000/svg"
   xmlns="http://www.w3.org/2000/svg"
   xmlns:sodipodi="http://sodipodi.sourceforge.net/DTD/sodipodi-0.dtd"
   xmlns:inkscape="http://www.inkscape.org/namespaces/inkscape"
   version="1.1"
   id="Layer_1"
   x="0px"
   y="0px"
   viewBox="0 0 32 32"
   style="enable-background:new 0 0 32 32;"
   xml:space="preserve"
   sodipodi:docname="status_powersave.svg"
   inkscape:version="1.0.2 (e86c870879, 2021-01-15)"><metadata
   id="metadata50"><rdf:RDF><cc:Work
       rdf:about=""><dc:format>image/svg+xml</dc:format><dc:type
         rdf:resource="http://purl.org/dc/dcmitype/StillImage" /></cc:Work></rdf:RDF></metadata><defs
   id="defs48"><linearGradient
     id="SVGID_3_-6"
     gradientUnits="userSpaceOnUse"
     x1="18.577801"
     y1="-10.7887"
     x2="16.3613"
     y2="30.881901"
     gradientTransform="matrix(1.4202368,0,0,1.4202368,-7.7301038,-6.1428421)"><stop
       offset="0"
       style="stop-color:#2ADE7A"
       id="stop20-7" /><stop
       offset="1"
       style="stop-color:#20B48D"
       id="stop22-5" /></linearGradient></defs><sodipodi:namedview
   pagecolor="#ffffff"
   bordercolor="#666666"
   borderopacity="1"
   objecttolerance="10"
   gridtolerance="10"
   guidetolerance="10"
   inkscape:pageopacity="0"
   inkscape:pageshadow="2"
   inkscape:window-width="1920"
   inkscape:window-height="1142"
   id="namedview46"
   showgrid="false"
   inkscape:zoom="22.96875"
   inkscape:cx="16"
   inkscape:cy="16"
   inkscape:window-x="0"
   inkscape:window-y="0"
   inkscape:window-maximized="1"
   inkscape:current-layer="Layer_1"
   inkscape:document-rotation="0" />
<style
   type="text/css"
   id="style2">
	.st0{fill:url(#SVGID_1_);}
	.st1{fill:url(#SVGID_2_);}
	.st2{fill:url(#SVGID_3_);}
	.st3{fill:url(#SVGID_4_);}
	.st4{fill:url(#SVGID_5_);}
</style>


<path
   class="st2"
   d="m 24.50927,15.728807 c 0,-7.1011879 -4.402735,-11.2198677 -7.953326,-14.4864103 L 16.413919,1.1004324 C 16.129874,0.81638119 15.561779,0.6743556 15.135708,0.95846804 14.709636,1.1004324 14.425588,1.5265704 14.425588,1.9526319 c 0,3.5505938 -1.420236,5.8229715 -2.698449,8.0953501 -0.426071,0.568103 -0.710119,1.13619 -0.994166,1.846318 -0.710118,1.420225 -1.2782131,2.840465 -1.2782131,4.544757 0,0.141965 0,0.284036 0,0.426062 0,0 0,0 0,0 0,0.141964 0,0.284051 0,0.426076 0,0 0,0 0,0 0,0.141965 0,0.284036 0,0.426062 0,0 0,0 0,0 0,0.141964 0,0.284051 0,0.426077 0,0 0,0 0,0 0,0.141964 0,0.284051 0,0.426076 0,0 0,0 0,0 0,0.141965 0,0.284036 0,0.284036 0,0 0,0 0,0 0,0.141965 0,0.284051 0.1420256,0.284051 0,0 0,0 0,0 0,0.141965 0,0.141965 0.1420255,0.284052 0,0 0,0 0,0 0,0.141964 0,0.141964 0.1420256,0.284051 0,0 0,0 0,0 0,0.141964 0,0.141964 0.1420254,0.284036 0,0 0,0 0,0 0,0.141964 0.142026,0.141964 0.142026,0.284051 0,0 0,0 0,0 0,0.141964 0.142025,0.141964 0.142025,0.284051 0,0 0,0 0,0 0,0.141964 0.142026,0.141964 0.142026,0.284051 0,0 0,0 0,0 0,0.141965 0.142026,0.141965 0.142026,0.284036 0,0 0,0 0,0 0,0.141964 0.142025,0.141964 0.142025,0.284051 0,0 0,0 0,0 0,0.141965 0.142026,0.141965 0.142026,0.284051 0,0 0,0 0,0 0,0 0.142025,0.141965 0.142025,0.141965 0,0 0,0 0,0 0,0 0.142026,0.141964 0.142026,0.141964 0,0 0,0 0,0 0,0 0.142026,0.141964 0.142026,0.141964 0,0 0,0 0,0 0,0 0.142025,0.141965 0.142025,0.141965 0,0 0,0 0,0 0,0 0.142026,0.141964 0.142026,0.141964 0,0 0,0 0,0 0,0 0.142025,0.141964 0.142025,0.141964 0,0 0,0 0,0 0,0 0.142026,0.141965 0.142026,0.141965 0,0 0,0 0,0 0.142025,0 0.142025,0.141964 0.284048,0.141964 0,0 0,0 0,0 0.142026,0 0.142026,0.141964 0.284048,0.141964 0,0 0,0 0.142026,0 0.142025,0 0.142025,0.141965 0.284046,0.141965 0,0 0,0 0.142026,0 0.142025,0 0.142025,0 0.284046,0.141964 0,0 0,0 0.142026,0 0.142026,0 0.142026,0 0.284047,0.141964 0,0 0,0 0.142025,0 0,0 0.142026,0 0.142026,0 -0.852141,2.414406 -2.556426,4.828811 -5.6809457,5.680949 -0.2840481,0.141964 -0.5680947,0.284051 -0.7101187,0.568087 -0.1420256,0.284051 -0.1420256,0.568102 0,0.710128 0,0 0,0 0,0 0,0 0,0 0,0 0.1420256,0.426061 0.5680947,0.852138 1.1361894,0.852138 h 0.2840466 c 4.2607114,-1.136189 6.3910644,-4.260706 7.3852314,-7.52725 5.680948,1.136189 8.09535,-3.550594 8.09535,-7.953326 z"
   id="path25-5"
   style="fill:url(#SVGID_3_-6);stroke:#ffffff;stroke-width:1.01207;stroke-miterlimit:4;stroke-dasharray:none;stroke-opacity:1" /></svg>
