<?xml version="1.0" encoding="UTF-8" standalone="no"?>
<svg
   xmlns:dc="http://purl.org/dc/elements/1.1/"
   xmlns:cc="http://creativecommons.org/ns#"
   xmlns:rdf="http://www.w3.org/1999/02/22-rdf-syntax-ns#"
   xmlns:svg="http://www.w3.org/2000/svg"
   xmlns="http://www.w3.org/2000/svg"
   xmlns:xlink="http://www.w3.org/1999/xlink"
   xmlns:sodipodi="http://sodipodi.sourceforge.net/DTD/sodipodi-0.dtd"
   xmlns:inkscape="http://www.inkscape.org/namespaces/inkscape"
   version="1.1"
   id="Layer_1"
   x="0px"
   y="0px"
   viewBox="0 0 32 32"
   style="enable-background:new 0 0 32 32;"
   xml:space="preserve"
   sodipodi:docname="status_xpowersave.svg"
   inkscape:version="1.0.2 (e86c870879, 2021-01-15)"><metadata
   id="metadata59"><rdf:RDF><cc:Work
       rdf:about=""><dc:format>image/svg+xml</dc:format><dc:type
         rdf:resource="http://purl.org/dc/dcmitype/StillImage" /></cc:Work></rdf:RDF></metadata><defs
   id="defs57"><linearGradient
     id="SVGID_3_-6"
     gradientUnits="userSpaceOnUse"
     x1="18.577801"
     y1="-10.7887"
     x2="16.3613"
     y2="30.881901"
     gradientTransform="matrix(0.92738752,0,0,0.92738752,0.50469458,1.5411468)"><stop
       offset="0"
       style="stop-color:#2ADE7A"
       id="stop20-7" /><stop
       offset="1"
       style="stop-color:#20B48D"
       id="stop22-5" /></linearGradient><linearGradient
     inkscape:collect="always"
     xlink:href="#SVGID_3_-6"
     id="linearGradient901"
     gradientUnits="userSpaceOnUse"
     gradientTransform="matrix(0.92738752,0,0,0.92738752,6.5046946,1.5411468)"
     x1="18.577801"
     y1="-10.7887"
     x2="16.3613"
     y2="30.881901" /><linearGradient
     inkscape:collect="always"
     xlink:href="#SVGID_3_-6"
     id="linearGradient903"
     gradientUnits="userSpaceOnUse"
     gradientTransform="matrix(0.92738752,0,0,0.92738752,-5.4953054,1.5411468)"
     x1="18.577801"
     y1="-10.7887"
     x2="16.3613"
     y2="30.881901" /></defs><sodipodi:namedview
   pagecolor="#ffffff"
   bordercolor="#666666"
   borderopacity="1"
   objecttolerance="10"
   gridtolerance="10"
   guidetolerance="10"
   inkscape:pageopacity="0"
   inkscape:pageshadow="2"
   inkscape:window-width="1920"
   inkscape:window-height="1142"
   id="namedview55"
   showgrid="false"
   inkscape:zoom="22.96875"
   inkscape:cx="16"
   inkscape:cy="16"
   inkscape:window-x="0"
   inkscape:window-y="0"
   inkscape:window-maximized="1"
   inkscape:current-layer="Layer_1"
   inkscape:document-rotation="0" />
<style
   type="text/css"
   id="style2">
	.st0{fill:url(#SVGID_1_);}
	.st1{fill:url(#SVGID_2_);}
	.st2{fill:url(#SVGID_3_);}
	.st3{fill:url(#SVGID_4_);}
	.st4{fill:url(#SVGID_5_);}
	.st5{fill:url(#SVGID_6_);}
</style>


<g
   id="g839"
   transform="matrix(1.3272969,0,0,1.3272969,-5.2367507,-5.2367508)"><path
     class="st2"
     d="m 15.556391,15.822916 c 0,-4.63694 -2.874902,-7.3263592 -5.19337,-9.4593492 l -0.09274,-0.0927 c -0.185476,-0.18548 -0.556431,-0.27822 -0.834647,-0.0927 -0.278217,0.0927 -0.463695,0.37096 -0.463695,0.64917 0,2.31847 -0.927387,3.8022892 -1.762036,5.2861092 -0.278216,0.37096 -0.463694,0.74191 -0.649171,1.20561 -0.463694,0.92738 -0.834649,1.85477 -0.834649,2.96764 0,0.0927 0,0.18547 0,0.27821 0,0 0,0 0,0 0,0.0927 0,0.18548 0,0.27822 0,0 0,0 0,0 0,0.0927 0,0.18547 0,0.27821 0,0 0,0 0,0 0,0.0927 0,0.18548 0,0.27822 0,0 0,0 0,0 0,0.0927 0,0.18548 0,0.27822 0,0 0,0 0,0 0,0.0927 0,0.18547 0,0.18547 0,0 0,0 0,0 0,0.0927 0,0.18548 0.09274,0.18548 0,0 0,0 0,0 0,0.0927 0,0.0927 0.09274,0.18548 0,0 0,0 0,0 0,0.0927 0,0.0927 0.09274,0.18548 0,0 0,0 0,0 0,0.0927 0,0.0927 0.09274,0.18547 0,0 0,0 0,0 0,0.0927 0.09274,0.0927 0.09274,0.18548 0,0 0,0 0,0 0,0.0927 0.09274,0.0927 0.09274,0.18548 0,0 0,0 0,0 0,0.0927 0.09274,0.0927 0.09274,0.18548 0,0 0,0 0,0 0,0.0927 0.09274,0.0927 0.09274,0.18547 0,0 0,0 0,0 0,0.0927 0.09274,0.0927 0.09274,0.18548 0,0 0,0 0,0 0,0.0927 0.09274,0.0927 0.09274,0.18548 0,0 0,0 0,0 0,0 0.09274,0.0927 0.09274,0.0927 0,0 0,0 0,0 0,0 0.09274,0.0927 0.09274,0.0927 0,0 0,0 0,0 0,0 0.09274,0.0927 0.09274,0.0927 0,0 0,0 0,0 0,0 0.09274,0.0927 0.09274,0.0927 0,0 0,0 0,0 0,0 0.09274,0.0927 0.09274,0.0927 0,0 0,0 0,0 0,0 0.09274,0.0927 0.09274,0.0927 0,0 0,0 0,0 0,0 0.09274,0.0927 0.09274,0.0927 0,0 0,0 0,0 0.09274,0 0.09274,0.0927 0.185478,0.0927 0,0 0,0 0,0 0.09274,0 0.09274,0.0927 0.185478,0.0927 0,0 0,0 0.09274,0 0.09274,0 0.09274,0.0927 0.185477,0.0927 0,0 0,0 0.09274,0 0.09274,0 0.09274,0 0.185477,0.0927 0,0 0,0 0.09274,0 0.09274,0 0.09274,0 0.185477,0.0927 0,0 0,0 0.09274,0 0,0 0.09274,0 0.09274,0 -0.556432,1.576561 -1.669297,3.153121 -3.709549,3.709551 -0.185478,0.0927 -0.370955,0.18548 -0.463694,0.37095 -0.09274,0.18548 -0.09274,0.37096 0,0.4637 0,0 0,0 0,0 0,0 0,0 0,0 0.09274,0.27821 0.370955,0.55643 0.74191,0.55643 h 0.185477 c 2.782163,-0.74191 4.173243,-2.78216 4.822415,-4.915151 3.709551,0.74191 5.286109,-2.31847 5.286109,-5.19337 z"
     id="path25-5"
     style="fill:url(#linearGradient903);stroke:#ffffff;stroke-width:0.660863;stroke-miterlimit:4;stroke-dasharray:none;stroke-opacity:1" /><path
     class="st2"
     d="m 27.556391,15.822916 c 0,-4.63694 -2.874902,-7.3263592 -5.19337,-9.4593492 l -0.09274,-0.0927 c -0.185476,-0.18548 -0.556431,-0.27822 -0.834647,-0.0927 -0.278217,0.0927 -0.463695,0.37096 -0.463695,0.64917 0,2.31847 -0.927387,3.8022892 -1.762036,5.2861092 -0.278216,0.37096 -0.463694,0.74191 -0.649171,1.20561 -0.463694,0.92738 -0.834649,1.85477 -0.834649,2.96764 0,0.0927 0,0.18547 0,0.27821 0,0 0,0 0,0 0,0.0927 0,0.18548 0,0.27822 0,0 0,0 0,0 0,0.0927 0,0.18547 0,0.27821 0,0 0,0 0,0 0,0.0927 0,0.18548 0,0.27822 0,0 0,0 0,0 0,0.0927 0,0.18548 0,0.27822 0,0 0,0 0,0 0,0.0927 0,0.18547 0,0.18547 0,0 0,0 0,0 0,0.0927 0,0.18548 0.09274,0.18548 0,0 0,0 0,0 0,0.0927 0,0.0927 0.09274,0.18548 0,0 0,0 0,0 0,0.0927 0,0.0927 0.09274,0.18548 0,0 0,0 0,0 0,0.0927 0,0.0927 0.09274,0.18547 0,0 0,0 0,0 0,0.0927 0.09274,0.0927 0.09274,0.18548 0,0 0,0 0,0 0,0.0927 0.09274,0.0927 0.09274,0.18548 0,0 0,0 0,0 0,0.0927 0.09274,0.0927 0.09274,0.18548 0,0 0,0 0,0 0,0.0927 0.09274,0.0927 0.09274,0.18547 0,0 0,0 0,0 0,0.0927 0.09274,0.0927 0.09274,0.18548 0,0 0,0 0,0 0,0.0927 0.09274,0.0927 0.09274,0.18548 0,0 0,0 0,0 0,0 0.09274,0.0927 0.09274,0.0927 0,0 0,0 0,0 0,0 0.09274,0.0927 0.09274,0.0927 0,0 0,0 0,0 0,0 0.09274,0.0927 0.09274,0.0927 0,0 0,0 0,0 0,0 0.09274,0.0927 0.09274,0.0927 0,0 0,0 0,0 0,0 0.09274,0.0927 0.09274,0.0927 0,0 0,0 0,0 0,0 0.09274,0.0927 0.09274,0.0927 0,0 0,0 0,0 0,0 0.09274,0.0927 0.09274,0.0927 0,0 0,0 0,0 0.09274,0 0.09274,0.0927 0.185478,0.0927 0,0 0,0 0,0 0.09274,0 0.09274,0.0927 0.185478,0.0927 0,0 0,0 0.09274,0 0.09274,0 0.09274,0.0927 0.185477,0.0927 0,0 0,0 0.09274,0 0.09274,0 0.09274,0 0.185477,0.0927 0,0 0,0 0.09274,0 0.09274,0 0.09274,0 0.185477,0.0927 0,0 0,0 0.09274,0 0,0 0.09274,0 0.09274,0 -0.556432,1.576561 -1.669297,3.153121 -3.709549,3.709551 -0.185478,0.0927 -0.370955,0.18548 -0.463694,0.37095 -0.09274,0.18548 -0.09274,0.37096 0,0.4637 0,0 0,0 0,0 0,0 0,0 0,0 0.09274,0.27821 0.370955,0.55643 0.74191,0.55643 h 0.185477 c 2.782163,-0.74191 4.173243,-2.78216 4.822415,-4.915151 3.709551,0.74191 5.286109,-2.31847 5.286109,-5.19337 z"
     id="path899"
     style="fill:url(#linearGradient901);stroke:#ffffff;stroke-width:0.660863;stroke-miterlimit:4;stroke-dasharray:none;stroke-opacity:1" /></g></svg>
