<?xml version="1.0" encoding="UTF-8" standalone="no"?>
<svg
   xmlns:dc="http://purl.org/dc/elements/1.1/"
   xmlns:cc="http://creativecommons.org/ns#"
   xmlns:rdf="http://www.w3.org/1999/02/22-rdf-syntax-ns#"
   xmlns:svg="http://www.w3.org/2000/svg"
   xmlns="http://www.w3.org/2000/svg"
   xmlns:xlink="http://www.w3.org/1999/xlink"
   xmlns:sodipodi="http://sodipodi.sourceforge.net/DTD/sodipodi-0.dtd"
   xmlns:inkscape="http://www.inkscape.org/namespaces/inkscape"
   version="1.1"
   id="Layer_1"
   x="0px"
   y="0px"
   viewBox="0 0 32 32"
   style="enable-background:new 0 0 32 32;"
   xml:space="preserve"
   sodipodi:docname="status_xperformance.svg"
   inkscape:version="1.0.2 (e86c870879, 2021-01-15)"><metadata
   id="metadata57"><rdf:RDF><cc:Work
       rdf:about=""><dc:format>image/svg+xml</dc:format><dc:type
         rdf:resource="http://purl.org/dc/dcmitype/StillImage" /></cc:Work></rdf:RDF></metadata><defs
   id="defs55"><linearGradient
     id="SVGID_5_"
     gradientUnits="userSpaceOnUse"
     x1="14.1458"
     y1="1.5685"
     x2="15.0234"
     y2="22.755501"
     gradientTransform="translate(1.2748923,0.26961539)"><stop
       offset="0"
       style="stop-color:#FFD845"
       id="stop36" /><stop
       offset="1"
       style="stop-color:#FF9D21"
       id="stop38" /></linearGradient><linearGradient
     inkscape:collect="always"
     xlink:href="#SVGID_5_"
     id="linearGradient899"
     gradientUnits="userSpaceOnUse"
     gradientTransform="translate(7.2748923,0.26961539)"
     x1="14.1458"
     y1="1.5685"
     x2="15.0234"
     y2="22.755501" /><linearGradient
     inkscape:collect="always"
     xlink:href="#SVGID_5_"
     id="linearGradient901"
     gradientUnits="userSpaceOnUse"
     gradientTransform="translate(-4.7251077,0.26961539)"
     x1="14.1458"
     y1="1.5685"
     x2="15.0234"
     y2="22.755501" /></defs><sodipodi:namedview
   pagecolor="#ffffff"
   bordercolor="#666666"
   borderopacity="1"
   objecttolerance="10"
   gridtolerance="10"
   guidetolerance="10"
   inkscape:pageopacity="0"
   inkscape:pageshadow="2"
   inkscape:window-width="1920"
   inkscape:window-height="1142"
   id="namedview53"
   showgrid="false"
   inkscape:zoom="22.96875"
   inkscape:cx="16"
   inkscape:cy="16"
   inkscape:window-x="0"
   inkscape:window-y="0"
   inkscape:window-maximized="1"
   inkscape:current-layer="Layer_1"
   inkscape:document-rotation="0" />
<style
   type="text/css"
   id="style2">
	.st0{fill:url(#SVGID_1_);}
	.st1{fill:url(#SVGID_2_);}
	.st2{fill:url(#SVGID_3_);}
	.st3{fill:url(#SVGID_4_);}
	.st4{fill:url(#SVGID_5_);}
	.st5{fill:url(#SVGID_6_);}
</style>


<linearGradient
   id="SVGID_6_"
   gradientUnits="userSpaceOnUse"
   x1="16.5754"
   y1="3.7017"
   x2="15.9315"
   y2="23.5691">
	<stop
   offset="0"
   style="stop-color:#FFD845"
   id="stop45" />
	<stop
   offset="1"
   style="stop-color:#FF9D21"
   id="stop47" />
</linearGradient>

<g
   id="g842"
   transform="matrix(1.5918496,0,0,1.5918496,-9.4695931,-9.4695935)"><path
     class="st4"
     d="m 13.774892,14.369615 c -0.1,-0.2 -0.3,-0.3 -0.6,-0.3 h -1.8 l 0.6,-3.7 c 0,-0.3 -0.1,-0.5999996 -0.4,-0.6999996 -0.3,-0.1 -0.6,0 -0.8,0.2 l -4.5,6.3999996 c -0.1,0.2 -0.2,0.5 0,0.7 0.1,0.2 0.3,0.3 0.6,0.3 h 1.8 l -0.6,4.4 c 0,0.3 0.1,0.6 0.4,0.7 h 0.2 c 0.2,0 0.3,-0.1 0.4,-0.2 0,0 0.1,-0.1 0.1,-0.1 l 4.5,-7.1 c 0.2,-0.1 0.2,-0.4 0.1,-0.6 z"
     id="path41"
     style="fill:url(#linearGradient901)" /><path
     class="st4"
     d="m 25.774892,14.369615 c -0.1,-0.2 -0.3,-0.3 -0.6,-0.3 h -1.8 l 0.6,-3.7 c 0,-0.3 -0.1,-0.5999996 -0.4,-0.6999996 -0.3,-0.1 -0.6,0 -0.8,0.2 l -4.5,6.3999996 c -0.1,0.2 -0.2,0.5 0,0.7 0.1,0.2 0.3,0.3 0.6,0.3 h 1.8 l -0.6,4.4 c 0,0.3 0.1,0.6 0.4,0.7 h 0.2 c 0.2,0 0.3,-0.1 0.4,-0.2 0,0 0.1,-0.1 0.1,-0.1 l 4.5,-7.1 c 0.2,-0.1 0.2,-0.4 0.1,-0.6 z"
     id="path897"
     style="fill:url(#linearGradient899)" /></g></svg>
